<svg id="Camada_1" data-name="Camada 1" xmlns="http://www.w3.org/2000/svg" viewBox="0 0 113 36"><defs><style>.cls-1{fill:#f2f2f2;}.cls-2{fill:#b3b3b3;}</style></defs><title>Prancheta 1</title><path class="cls-1" d="M78.13,34.56a.66.66,0,0,1,0-.93h0a.67.67,0,0,1,.94.94.66.66,0,0,1-.93,0Z"/><path class="cls-1" d="M82.37,33.32a5.22,5.22,0,0,1-1.46-3.8,5.16,5.16,0,0,1,1.43-3.74,4.65,4.65,0,0,1,3.5-1.48,5,5,0,0,1,3.78,1.6v.15l-.33.32h-.13A4.2,4.2,0,0,0,85.88,25a4.06,4.06,0,0,0-3.06,1.28,4.55,4.55,0,0,0-1.23,3.29,4.56,4.56,0,0,0,1.26,3.32,4.13,4.13,0,0,0,3.09,1.3,4,4,0,0,0,1.74-.33,5.73,5.73,0,0,0,1.41-1,.07.07,0,0,1,.1,0h0l.37.32a.09.09,0,0,1,0,.13h0A5,5,0,0,1,86,34.82,4.83,4.83,0,0,1,82.37,33.32Z"/><path class="cls-1" d="M95.71,34.82a5,5,0,0,1-3.77-1.41,5.13,5.13,0,0,1-1.4-3.78A5.21,5.21,0,0,1,92,25.8a5.66,5.66,0,0,1,7.54,0,5.26,5.26,0,0,1,1.4,3.82,5.15,5.15,0,0,1-1.4,3.78A5.07,5.07,0,0,1,95.71,34.82ZM99,32.92a4.45,4.45,0,0,0,1.22-3.29A4.57,4.57,0,0,0,99,26.29a4.85,4.85,0,0,0-6.51,0,4.59,4.59,0,0,0-1.22,3.33,4.48,4.48,0,0,0,1.21,3.29,4.94,4.94,0,0,0,6.52,0Z"/><path class="cls-1" d="M111.74,24.47c.06,0,.1,0,.11.11v10c0,.06,0,.1-.11.1h-.49a.1.1,0,0,1-.11-.09h0V26l-3.65,6.21s0,.06-.09.06H107a.1.1,0,0,1-.11-.06L103.16,26v8.61a.09.09,0,0,1-.08.1h-.5a.09.09,0,0,1-.1-.1v-10a.1.1,0,0,1,.09-.11H103a.11.11,0,0,1,.11.06l4.08,6.83,4-6.83a.12.12,0,0,1,.1-.06Z"/><polygon class="cls-2" points="104.95 21.05 105.44 21.05 105.44 19.3 104.95 19.3 104.95 21.05 104.95 21.05"/><path class="cls-2" d="M79.09,16.59,98.49,4l.81,1.25L99.72,5l-.81-1.25,3.34-2.17a.23.23,0,0,1,.32.07h0l2.33,3.58h0v.06h0v.07h0v.07h0v.05h0V6h0v.07h0v1h0v.05h0v.14h1.37l2.33,3.58a.23.23,0,0,1-.07.32h0l-3.34,2.17-.27-.36-.42.27.81,1.25-2,1.27h.91l5.07-3.3a.73.73,0,0,0,.21-1l-2.59-4-.21.13a1.28,1.28,0,1,1-1.4-2.15l.21-.13-2.59-4a.73.73,0,0,0-1-.21l-23.1,15a.73.73,0,0,0-.21,1L80.5,20.1v-.91L79,16.91a.23.23,0,0,1,.07-.32h0Z"/><polygon class="cls-2" points="100.8 7.52 101.21 7.25 100.26 5.79 99.85 6.06 100.8 7.52 100.8 7.52"/><polygon class="cls-2" points="101.75 8.08 101.33 8.35 101.53 8.64 102.28 9.81 102.48 10.11 102.89 9.84 102.7 9.54 101.94 8.38 101.75 8.08 101.75 8.08"/><polygon class="cls-2" points="103.43 10.67 103.02 10.94 103.97 12.4 104.38 12.13 103.43 10.67 103.43 10.67"/><path class="cls-2" d="M109.43,16.32H81.8a.73.73,0,0,0-.73.73h0v4.74h.4l.1-.13V17a.23.23,0,0,1,.23-.23h23.14v1.49h.5V16.82h4a.23.23,0,0,1,.23.23h0v4.29h.48V17A.73.73,0,0,0,109.43,16.32Z"/><path class="cls-1" d="M7.92,6.36a5.7,5.7,0,0,1,3.92,1.32,4.42,4.42,0,0,1,1.5,3.47,4.38,4.38,0,0,1-1.49,3.46,5.73,5.73,0,0,1-3.93,1.31H5.73v4.62a.46.46,0,0,1-.39.52H2.12a.46.46,0,0,1-.52-.52V6.89A.47.47,0,0,1,2,6.36H7.92Zm0,6.2A1.36,1.36,0,0,0,9,12.09a1.55,1.55,0,0,0,.39-1,1.44,1.44,0,0,0-.4-1,1.42,1.42,0,0,0-1.12-.44H5.73v2.9Z"/><path class="cls-1" d="M27.15,20.46c.16.37,0,.6-.42.6h-3.4a.58.58,0,0,1-.6-.4l-.55-1.34h-5l-.58,1.34a.63.63,0,0,1-.62.4H12.59c-.42,0-.54-.21-.39-.6l6.11-13.7a.63.63,0,0,1,.6-.4h1.85a.6.6,0,0,1,.62.4Zm-7.37-7.92-1.34,3.77H21Z"/><path class="cls-1" d="M40.92,20.44a.4.4,0,0,1-.38.63h-3a.62.62,0,0,1-.6-.38l-2.37-4.77h-2v4.62a.46.46,0,0,1-.39.52H29a.46.46,0,0,1-.52-.52V6.89a.47.47,0,0,1,.4-.53h5.91A5.7,5.7,0,0,1,38.7,7.68a4.42,4.42,0,0,1,1.5,3.47,4.33,4.33,0,0,1-2.2,4ZM32.6,9.66v2.9h2.18a1.36,1.36,0,0,0,1.13-.47,1.55,1.55,0,0,0,.39-1,1.44,1.44,0,0,0-.4-1,1.42,1.42,0,0,0-1.12-.44Z"/><path class="cls-1" d="M53.72,6.36a.48.48,0,0,1,.53.53V9.68a.47.47,0,0,1-.41.52h-4V20.54a.47.47,0,0,1-.41.52H46.21a.46.46,0,0,1-.52-.52V10.21H41.8a.46.46,0,0,1-.52-.52V6.89a.47.47,0,0,1,.4-.53h12Z"/><path class="cls-1" d="M56.27,21.06a.46.46,0,0,1-.52-.52V6.89a.47.47,0,0,1,.4-.53h3.23a.47.47,0,0,1,.52.53V20.54a.46.46,0,0,1-.39.52H56.27Z"/><path class="cls-1" d="M68.51,21.25a5.94,5.94,0,0,1-4.62-1.88,7.17,7.17,0,0,1-1.7-5V6.89a.47.47,0,0,1,.4-.53H65.8a.47.47,0,0,1,.52.53v7.45c0,1.93.68,2.77,2.19,2.77s2.15-.84,2.15-2.77V6.89a.47.47,0,0,1,.4-.53h3.21a.48.48,0,0,1,.53.53v7.45a7.21,7.21,0,0,1-1.69,5A5.89,5.89,0,0,1,68.51,21.25Z"/><path class="cls-1" d="M2.27,34.76a.13.13,0,0,1-.14-.14V24.77a.14.14,0,0,1,.14-.15H3a.13.13,0,0,1,.14.15v9.84a.13.13,0,0,1-.14.14Z"/><path class="cls-1" d="M14.87,24.63c.09,0,.14,0,.15.15v9.84a.13.13,0,0,1-.15.14h-.59a.16.16,0,0,1-.16-.07L7.35,26.55v8.06a.13.13,0,0,1-.14.14H6.43a.13.13,0,0,1-.14-.14V24.77a.14.14,0,0,1,.14-.15H7a.16.16,0,0,1,.16.08L14,32.83V24.77c0-.09,0-.14.15-.15Z"/><path class="cls-1" d="M26.6,29.71a.13.13,0,0,1,.14.15v4.76a.13.13,0,0,1-.14.14h-.51a.16.16,0,0,1-.16-.14l-.1-.93a4.47,4.47,0,0,1-3.29,1.24A4.68,4.68,0,0,1,19,33.47a5.16,5.16,0,0,1-1.4-3.74A5.3,5.3,0,0,1,19,26a4.73,4.73,0,0,1,3.5-1.53A5.27,5.27,0,0,1,26.45,26a.12.12,0,0,1,0,.18l-.52.5s-.09,0-.16,0a4.41,4.41,0,0,0-3.19-1.24,3.93,3.93,0,0,0-2.88,1.25,4.29,4.29,0,0,0-1.12,3.06,4.25,4.25,0,0,0,1.14,3.08,4,4,0,0,0,3,1.19,3.59,3.59,0,0,0,3.07-1.4v-2H22.63c-.11,0-.16,0-.16-.14v-.55c0-.09,0-.14.16-.15Z"/><path class="cls-1" d="M36.81,34.57c.06.13,0,.19-.12.19h-.81a.17.17,0,0,1-.16-.1l-2-4H30.55v4a.13.13,0,0,1-.14.14h-.77a.13.13,0,0,1-.14-.14V24.77a.14.14,0,0,1,.14-.15h3.82a3.66,3.66,0,0,1,2.48.81,2.68,2.68,0,0,1,.93,2.13,3,3,0,0,1-.57,1.81,3,3,0,0,1-1.56,1.1Zm-6.27-9v4.09h2.91a2.55,2.55,0,0,0,1.75-.57,2,2,0,0,0,0-2.94,2.55,2.55,0,0,0-1.75-.58Z"/><path class="cls-1" d="M46.67,33.77a.13.13,0,0,1,.14.14v.7a.13.13,0,0,1-.14.14H39.59a.13.13,0,0,1-.14-.14V24.77a.14.14,0,0,1,.14-.15h7c.09,0,.14,0,.15.15v.69c0,.09,0,.14-.15.15H40.5v3.62h5.18a.14.14,0,0,1,.15.14v.55c0,.09,0,.14-.15.14H40.5v3.71Z"/><path class="cls-1" d="M48.66,33.32a.17.17,0,0,1,0-.2l.37-.55c0-.09.11-.1.2,0a3.92,3.92,0,0,0,3,1.38A2.9,2.9,0,0,0,54,33.43,1.71,1.71,0,0,0,54.67,32a1.38,1.38,0,0,0-.59-1.23,6.67,6.67,0,0,0-2-.71l-.52-.12L51,29.77a3,3,0,0,1-.57-.21L50,29.32a2.25,2.25,0,0,1-1.15-2,2.49,2.49,0,0,1,.94-2,3.8,3.8,0,0,1,2.47-.76,4.81,4.81,0,0,1,3.3,1.31.16.16,0,0,1,0,.21l-.32.55c0,.08-.11.09-.21,0a4.25,4.25,0,0,0-2.79-1.16,2.88,2.88,0,0,0-1.74.49,1.58,1.58,0,0,0-.66,1.34,1.43,1.43,0,0,0,.47,1.07,1.72,1.72,0,0,0,.54.3,5.38,5.38,0,0,0,.61.21q.24.07.7.17l1,.25a7.81,7.81,0,0,1,.92.35,2.8,2.8,0,0,1,.83.52A2.55,2.55,0,0,1,55.71,32a2.64,2.64,0,0,1-.92,2.14,3.7,3.7,0,0,1-2.48.78A4.82,4.82,0,0,1,48.66,33.32Z"/><path class="cls-1" d="M57.68,33.32a.17.17,0,0,1,0-.2l.37-.55c0-.09.11-.1.2,0a3.92,3.92,0,0,0,3,1.38A2.9,2.9,0,0,0,63,33.43,1.71,1.71,0,0,0,63.7,32a1.38,1.38,0,0,0-.59-1.23,6.67,6.67,0,0,0-2-.71l-.52-.12-.53-.15a3,3,0,0,1-.57-.21L59,29.32a2.25,2.25,0,0,1-1.15-2,2.49,2.49,0,0,1,.94-2,3.8,3.8,0,0,1,2.47-.76,4.81,4.81,0,0,1,3.3,1.31.16.16,0,0,1,0,.21l-.32.55c0,.08-.11.09-.2,0a4.25,4.25,0,0,0-2.79-1.16,2.88,2.88,0,0,0-1.74.49,1.58,1.58,0,0,0-.66,1.34,1.43,1.43,0,0,0,.47,1.07,1.72,1.72,0,0,0,.54.3,5.34,5.34,0,0,0,.61.21c.16,0,.4.11.7.17s.78.18,1,.25a7.85,7.85,0,0,1,.92.35,2.81,2.81,0,0,1,.83.52A2.55,2.55,0,0,1,64.74,32a2.64,2.64,0,0,1-.92,2.14,3.7,3.7,0,0,1-2.48.78A4.82,4.82,0,0,1,57.68,33.32Z"/><path class="cls-1" d="M71.95,34.93a5,5,0,0,1-3.75-1.41,5.1,5.1,0,0,1-1.4-3.77A5.19,5.19,0,0,1,68.2,26a5.64,5.64,0,0,1,7.5,0,5.24,5.24,0,0,1,1.39,3.8,5.13,5.13,0,0,1-1.39,3.77A5.05,5.05,0,0,1,71.95,34.93Zm0-1a4.06,4.06,0,0,0,3-1.12,4.13,4.13,0,0,0,1.12-3.05,4.25,4.25,0,0,0-1.12-3.09,4.46,4.46,0,0,0-6,0,4.23,4.23,0,0,0-1.12,3.09A4.13,4.13,0,0,0,69,32.81,4.06,4.06,0,0,0,71.95,33.93Z"/></svg>