<svg id="Camada_2" data-name="Camada 2" xmlns="http://www.w3.org/2000/svg" viewBox="0 0 366 92"><defs><style>.cls-1{fill:#fff;}.cls-2{fill:#f9f9f9;}.cls-3{fill:#ffd731;}.cls-4{fill:#fcfafa;}.cls-5{fill:#f9f7f7;}</style></defs><title>Prancheta 1</title><path class="cls-1" d="M8,26.94l.49-.35.25.15.54-.25,1.09.25.49-.15.45.15,1.19-.15.45.15,1.73-.15.2.44,1.43-.35.54.1.49.35.35-.3h.64l.1-.25.84.15V27l-.15.2h.44l-.15-.3v-.3h.35l.24.16.25-.15.54-.1,1.83.25.89-.1.25-.15.45.2h.64l-.1.64v2.41l.2-.25v-.4l-.15-.25h.4l-.2-.25v-.49L25.25,27l2.52.64.1.3.2.15.35-.35.94.25v.69l.3.49.15-.25h.4l.35-.2.84.44.1.3.64.2.1.25L32,29.79l-.25.15.4.35.15.3.3-.2h.25l.59.54.3.1v.35l.15.25.4.25.1.25-.25.4.15.2h.49v.54l.2.1h.3l.5,1.42V35l.3.44v.64l.45.4-.2.74v.35l.3.49.15.59-.1,1.58.25.59-.3,1.83v.74l-.3,1.24-.44.79.2.35-.74,1.78L35,48l-.25.15.1.44L34.6,49l-.49.2v.3l-.59.69v.4L33,51l-1.24,1.19-.84.35-.4.74h-.69l.15.25v.4h-.54l.49.35v.25l-.15.25.89.64.1.25-.1.3.45.35.94,1v.3l.69.84.1.3v.4l.54.25.64,1,.45.4v.54l.1.15h.25l.4.54.25.2v.3l.25.44.69.59.2.54v.3l-.1-.15h-.25l.1.3.25.1-.49.84-.54.2-2.08-.3-.59.1-.3.15-.35-.15-.2-.2-.54.45-.3-.15v-.3L30,65.56h-.64l-.79-.25-1.24.3H27l-.59-.35L25.22,65l-.45-.69v-.2l-.07-.28h-.3v-.3L24,63l-.79-.84-.35-.49-.35-.89h-.35l-.4-.4-.44-.64.1-.25-.1-.25-.53-.45.1-.54-.15-.15-.49-.2.2-.64h-.74V57l-.44-.69V56L19,55.9h-.35l.15-.2-.44-.35V55h-1.6l-.2-.3-.89-.25-.1.15v.3l-.25-.15-.15-.25L15,54.33l-.1.15v.59l-1.34.15-.84.2-.2.3V56l.64-.25h.35L13.26,57l.1,1.19.15.25v.35l-.15.25-.45.4-.15.3.2.15.25-.1h.25l-.25.15.15.2-.15.1.4,1v.4h-.35v.3l.25.35v.3l-.2.89-.2.2.1.35.25.2-.25.54-.94.74-1-.3-.3.1V65l-.25-.4v-.35l-.35.1.15.59v.4l-.25.1-.84-.2-.35.1-.35-.25-.35-.69H8.13l-.1.2.1.59-.54.15L6,65.31l-.54.1-.25.15L3.78,65v-.59l-.15-.15-.35-.1.4-.45-.3-.49L3.53,62v-.54l-.2-.3V61h.25l-.25-.35v-.3h.35l.25-.25-.49-.54.2-.89-.44-.2.35-2.18H4l-.69-.84L3.4,55v-.89l.1-.3.2-.2.3-.1-.2-.25-.3-.1v-.35l-.2-.54V52l.3-.35-.35-.49.08-1.31-.1-.59L3.48,49l-.15-.26.15-.59.3-.49v-.25l-.49-.1.1-1.09-.15-.64.15-.4-.1-.3.1-.54.45-1V43h-.2l-.15-.25-.25-.15.15-.3v-1l.54-.3-.1-.25-.45-.2.54-1.19-.35-.1-.1.2v.24l-.15-.15V39.1l.1-.94-.1-.3.25-.1.15-.2-.4-.74.15-1.29-.19-3.79.49-.1.23-.5H3.48l-.2-.35.59-.1v-.3l-.59-1v-.25l.15-.3.49.1v-.3l-.3-.35-.1.25-.15-.35v-.25l.54-1L5,26.59l.54.15.2.2,1.53-.4.54.15Zm-4.45,9h.2v-.15h-.2Zm.33,13.85H4v-.1H3.88Zm1.34,7.52.4.84.4.4.3.1.1-.25v-.31h-.3l-.45-.44.2-.25v-.3l-.15-.25H5.61l-.15.3Zm.19-7.52.25-.15.1-.3H5.31v.25ZM5.85,31.2l.1-.3v-.35l-.2-.25h-.3l.3.74ZM5.6,34.12l.25-.1.1.2.1-.54H5.56l-.15-.25v.3l.15.15Zm.15-2.77-.25.1.15.15Zm-.25,4.2h.3v-.2L5.7,35l-.15-.15-.1.3Zm.25,1.29L6,36l-.3.1-.15.3v.35Zm.1,2.23v-.4l-.35-.45v.4l.1.3ZM5.5,41.34l.25-.15v-.3l-.2-.2Zm0,4.55.15.25H6l.3.1-.49-.35Zm0,7.57.1.2.25.1v-.35l-.25-.2ZM6,60.17l-.2-.54-.25-.1.2.54ZM5.8,29.66l.2-.25v-.3H5.6l-.1.35Zm-.15-2.37v.35l.2.2L6,27.58v-.35H5.75ZM5.9,44v-.25l-.25-.2v.3Zm-.1,6.33v.35l-.2.44.45.2-.19-.54.64-.64-.1-.36H6.25l-.2.3ZM6,62.1v-.94l-.3-.44V61l-.1.69V62ZM5.9,45.63v-.25l-.25-.1v.25Zm-.1,1.93h.3l.2.3v-.3L6,47.11l-.1.2Zm.4,15.73L6.1,63H5.8v.25Zm-.34-14.5L6,49v.35l.2.15.2-.2V49l-.16-.3Zm.3,7.57h.3l.15-.3-.1-.25-.25.1-.1.2ZM6.3,32.23,6.6,32H6.3Zm.2,26.21.2-.15-.1-.2Zm1.38-1.65h-.3l-.1.15h.3l.15.1L8,56.79l.25-.15L8,56.46v-.94H7.78v1Zm-.2,6.63.44.1.1-.64H7.87l-.15.2ZM8,29.66l-.25.3.79.35.1-.64H8ZM7.8,51.42l.79.59.2-.15-.36-.07-.2-.45V51l.44-.3-.44-.1-.3.49Zm0,6.38.3.1.15-.2-.45-.35Zm.1-16.42h.3l.13-.59-.44-.3v.89Zm0,2.37.2.15.23-.11-.25-.15Zm0,3.91.25.25.2.49.15-1.34-.25-.49L8,46.79v.59ZM8,49l.1-.4-.22.15Zm-.15,5.49H8.1l.2.15.15-.2h.3L8.3,54l-.1-.25H8V54Zm.25.89V55H7.88v.35ZM8,60.91l.2.1v-.35L8,60.47l-.1.25Zm.1-32.49.2-.3L8,27.93v.35ZM8,53v.35l.1.2h.3l.1-.74-.25.1Zm.15-21.07v-.35L8,31.24v.35ZM8,35.79h.25L8,35.59Zm.35.2L8,35.89l.15.2ZM8,38.06l.25-.1.25-.49.25-.15H8.4l-.25.15L8,37.79Zm.25.84v-.4L8,38.36v.35ZM8,59.73l.69.15-.15-.2-.25-.1v-.3H8Zm0,2.62h.25l.54-.2v-.36l-.25-.15-.35.54ZM8,36.88l.2.1-.1-.35Zm0,6.33h.4L8.3,43,8,42.9Zm.1-3.66.3.64.2.2.25-.1-.1-.2V39.5l-.15-.15Zm.4-.64v-.25l-.15-.15v.28Zm.15,16.22H8.9l.1-.49H8.7v.3ZM10.23,38l.1.2-.3.64.64.1V38.4l-.07-.58-.25-.44v.44Zm-.1,3.66h.2l.15-.15h.2V41l-.2-.49.15-.54-.25-.25-.2.25v.54l.15.54.2.2-.25.15Zm.44,14.44v.54l-.3.1-.15.25v.35l.2.2.44-.54-.1-.3.1-1.14-.1-.3-.2.3-.1-.44h.3l.2-.15h-.25l-.1-.2h-.2v1.58ZM10.13,59h.44v-.8l-.2-.2v.35l-.2.4Zm.25,3.46.1-.35-.25-.1v.25ZM10.23,31.9l.25.69.4-.15-.25-.79-.15-.15-.1.2Zm0,2.82.35-.3.1-.59-.2-.2-.2.79Zm.35,27-.35-1v.69l.1.25Zm-.25,1.63.25-.15.1-.3.2-.2-.4-.2-.25.54Zm0-19.83.25-.25h-.3Zm0,9.5.3-.1.15-.35v-.3l-.44.4Zm.2-6.92.2-.15.2-1.33-.25-.25-.35-.1.15.54v1Zm-.2,2.62h.49l-.1-.25.1-.25h-.25l.15-.2-.4-.3v1ZM10.7,35.8v-.2h-.25ZM10.5,61h.2v-.22h-.2Zm.5-9.89v-.25l-.4-.1.1.35Zm-.4.54.2.25h.25l-.15-.3Zm0,8.6.25-.25-.15-.22V60Zm.3-13.15v-.25l-.2-.07V47Zm.25.54V47.2H10.9v.3Zm-.1.84.4.1-.1-.4-.2-.1Zm.2-1.38h.3v-.32h-.3Zm.94,5.49.69.15-.2-.4V52.1l.2-.25-.3-.1-.25.1V52l-.15.2Zm.69,1.29.25-.25V53.1L13,52.85l-.69.4Zm-.35-4.3.2.2h-.4v.59l.2.59.3.45.3-.45L13,49.79l.2-.64h-.3l-.25.15Zm.2,5.54.1-.2v-.35h-.35v.25l.1.25ZM20.3,35.89l-.49-.25h-.69l-.54.2-.45-.3-.13.25-.49.2h-.3l-.84-.4H15.8l-.15.25-.3.2-.15-.25-.3-.1-.84.54h-.3l-.25-.15v.3l-.2,1.73.15.84-.59.69v.3l.3.2h-.54v.64l.49-.2.15.54-.74,1.33-.25.15.15.2v.49l.64-.1.1.49-.64.1v.35l.49-.3.15.49-.3.45V45l.25-.1.15.2v.35l.64.3.2.25,1.24-.1.3-.1.54.15h1l.49.35,1-.45H19l.79.4L21,45.79l.74.1L22,46v.15l.45-.4h.3l.54-.15.54-.3h.3l.35.1v-.3l.15-.15h.54V44.5l.89-.64.4-.79.1-.64.2-.15H27l-.15-.3.2-1.29.35-.79-.54-.4-.35-1.19-.38-.56v-.4l-.79-.4-.4-.4-.1-.49-.44.3-1-.45-1.22-.16-.59.1-.74-.54-.3.4ZM12.43,46.27h.3l.27-.48h-.3l-.2.15Zm0,2.13.1.2h.4V47.22h-.25v.4l-.1.49Zm.2,5.74-.2-.1v.2Zm-.2,2.57.25.2.49-.2-.1-.3h-.25l-.25.15Zm.44-27.3-.25.54.1-.1-.25,1.58.3.35.15-.69h.25l-.1-.54.3-.1.15-.25-.25-.2v-.49l-.15-.2Zm-.1,28.19v-.3l-.15-.15v.3Zm-.15-23.19.35.3v-.35l.3-.4-.2-.25-.2.1-.2.3Zm.25,12.71v-.44l-.25.1.1.2Zm-.25,15.73h.2l.18-.06-.2-.1Zm.44,1.73-.15-.2-.3-.1v.3l.2.1Zm-.35-23.1.15-.2-.1-.2-.1.25ZM13.06,29l-.3-.3v.2Zm-.2,31.75.2-.1L13,60.3l-.2.2Zm.1-27.4.35-.35v-.3h-.4v.49Zm.4,2.77V36l-.1-.35-.25-.1V36Zm0,14.94.2-.2-.2-.25Zm0,.4.2-.15-.2-.15ZM14,27.3h.4l-.1-.2h-.2Zm1.09,3.31.1-.3v-.52l-.35-.25-.1.3v.35l.15.25Zm-.25,4H15v-.2h-.2Zm0,17.46.2.25-.2.54.44.3v-.3l.35-.25-.15-.69v-.35l-.53.22ZM15,47.79v.35l.15.25h.25l.4-.6-.54-.3v.2Zm0,1.29.25.25v.35l.25.4.2-.1V48.85h.2l.15-.49-.2-.2v.35L15.5,49l-.2.1Zm.1,2.37.2-.25v-.3l-.2-.11-.1.35Zm.35-16.81h.3l-.3-.2Zm.3,16v-.3l-.2-.15v.3Zm.35,4.2.25.1-.15.1Zm1.83-3.91-.25-.15-.15-.69H18l.2.2v-.5H18l-.15-.2V49l.35-.1v-.4h-.44l-.1-.25.15-.25-.1-.3-.4-.44-.15.25v.84l.15.2-.15.25.15.54-.3.3.1.3v.89l.4.44.2-.25Zm-.74,2.62.4.54.25.2.64-.89h-.59l-.15-.2.35-.49.3-.15-.15-.3v-.54l-.2-.15-.74,1.68Zm.3-19.34L18,34l.25-.54V33l-.54-.2-.3,1Zm0-5,.35-.25v.35l.3.2h-.3l-.2.1.1.3.44.35.4-.84-.58-.8-.25-.15-.25.35Zm.45,2.13.25-.49-.19-.6-.54-.2.25,1Zm-.45.64.15.54.2.15.35-.49h.4l-.1-.4-.2-.1-.49.25Zm.69,19.14.1-.2-.15-.15L18,51Zm.3-22.35.2-.2-.26-.78-.25-.15v.54l.1.2ZM18.38,31l.2-.2v-.4h-.15v.25ZM19.9,51.32v-.25L20,51l-.2-.1-.15.1v.15Zm.3-22.65-.3.4.1.54-.15.59.15.2.1-.2v-.89h.2l.15-.3v-.69l-.2-.25L20,28v.3l.15.15Zm-.1,2.82.1-.25L20,31l-.1.3ZM20,32.87h.49l-.4-.74-.15.25v.2Zm.1,22.45.4-.54-.4-.1-.15.4Zm0,.84.3-.2-.1-.2H20Zm.2-8.7.2-.35-.3-.1-.1.25Zm-.2,4.06.1.3v.89l.15.25-.15.2.15.1.45-.84L20.35,52l.2-.15-.1-.4.35-.15V51l-.25-.2-.2.54Zm.4-24.28V27h-.2Zm0,22.55v-.35l-.2-.15v.4ZM20.5,34v-.3h-.1V34Zm1.88,20,.2-.45-.2-.2-.15.35Zm.3-23.19v.89l.35.15.2-.84h-.44l-.2-.79-.2-.1-.1.25.1.25Zm-.3,2.37h.4l.1-.3h-.3l-.2-.1-.1.25Zm-.11,19.57L23,53v-.64l-.25.2L22.61,52l-.25-.2-.1.64Zm0,3.76.3.2.1-.2h.25l.1-.2-.45-.54-.15.2v.3Zm0,1.19h.25l-.25-.2Zm.1-23.44h.35l.2-.25V33.8l-.4.3Zm0,15.53h.4l-.15-.25Zm.1,5.84.44-.1v-.2l.25-.59v-.4l-.54-.2v.35l-.2.84Zm.2-4.75v-.25l-.15-.15v.2Zm.45-21.46-.1-.84h-.45l.2.54h.15Zm-.25,29.13-.1-.3H23V58h-.25l-.1.2v.3Zm.15-5,.1-.15h.2l-.15-.2h-.25Zm2-22.76-.25.1-.15.2v.3h.64L25,30.55l-.35-.15Zm-.3,3.81.1-.25-.25-.1Zm0-2.27.15.25v.94l.25.2V33l.25-.89-.49-.44-.1.25Zm.54,21.17L25,53l-.3-.1v.3l.25.25ZM24.65,56H25v-.4l-.1-.35-.2-.2v1Zm0-7.57h.2l.1-.1-.2-.3Zm0,2.37.15-.3.45-.35-.49-.2v.54Zm.49-3.36v-.35l-.14-.3-.2.21v.25Zm-.2,4.65.2-.4h-.3Zm.2,9,.25-.15-.25-.2Zm.1-7.91v.2l.15-.15-.1-.15Zm2.28-21.56v-.35l-.2-.2L27,31l.25.54ZM27.12,53l.2-.2-.2-.1H27ZM27,56.07l.25-.1v-.25l-.15-.2-.1.2Zm.15-5.39.35-.3-.38-.59-.1.59Zm.2,3.26v-.35l-.35-.1v.35Zm-.2,1.14.45-.15.1-.25-.15-.25-.3-.1-.15.49Zm0-25.86.3-.35-.1-.1-.15.15Zm0,1.09.4.25v-.4l-.25-.1Zm0,20.67.2.2h.35l.2-.3h-.49Zm.1-3.41h.2v-.15h-.2Zm.3,10.53-.2-.3-.1.25Zm-.2-12.61h.3l-.3-.2Zm.2-9.15.54-.3-.2-.49-.4.64Zm.25,20.18H28v-.2h-.2Zm1.58-4.45v-.4h-.25V52ZM29.82,37l-.1-.45-.35.1.2.2Zm-.2,21.56v-.3l-.25-.15v.35Zm-.2,4.75.15.25h.3l.15-.2h-.3Zm.1-32h.4l-.1-.25h-.3Zm0,4.35.25-.15-.25-.2Zm.3,13.7.1-.25-.1-.74h-.3l.2.79Zm-.1-17.06v-.5l-.1.25Zm-.1.3.45.35.15-.3V32.3H30l-.15-.2-.15.3Zm.1,8.65.2-.2.1-.35-.3-.1Zm.2,18.89.15-.2v-.35l-.25.1-.1.25Zm-.2,4.65.25-.15-.15-.2Zm.1-19H30l-.1-.25Zm0,6.58H30v-.2h-.2Zm.18,9,.1-.35-.25.15ZM31.72,30.8l.1.15h.25L32,30.7Zm0,13.2v-.2h-.1Zm0,4.5.15.2v.69l.1.1.35-.49.1-.4L32,48.4Zm0-12.41H32v-.2h-.2Zm.4-1.73.1-.49H32v.3Zm2,11.87V46h-.25Zm.3-5.79.1-.84-.2-.45L34,39.9v.25l.15.2Zm-.3,1.19.4.1-.15-.25Zm.3,1.73V43.2h-.25Zm-.2,3.56.2.1.1-.2h-.2Zm.1-10.78h.4l-.1-.3-.3-.1Zm.3,26h.15l-.1-.2-.15.1Zm1.29,3.12.2-.15-.2-.15Z"/><path class="cls-1" d="M42,36.63v-.35l.2-.49.74-.89.15-.59h.35l.54-.64.3-.1v-.49l.3-.1.4-.35.3-.49.45-.25H46v-.7l.54-.3,1.34-1,.84-.44V29.1l.25-.2.3.15v.54l.2.25.2-.25V29l-.15-.25.45-.4.3-.15h.3l.25.15.1-.15v-.3l2.27-.84,1.33-.59,1-.1,2.13-.58.44.2.54-.1H59l.2.2.54-.3,1.29.1.54-.15,1.14.25.49.2.4.35.45-.25.54.15h.59l1.14.25.94.49h.4l.54.25.15.3h.3l.64.35.54.1.25.35,1.29.64.1.25,1.09.64.35.49.59.2.4.4.2.59.54.15v.54H75l.3.15.54.69-.1.3.1.54.4-.3.94,1.33v.3l.44.2.2.2v.35l.45.64-.35.54.89.45.15.69.35.49-.1.49.25.45.3,1.29L80.3,43l-.1.35.3.54V48.1L80,50.63v.64l-.45,1.09-.74,1.19.1.3-.15.59-.35.49-.2.54-.35.25-.35,1-.64.59v.3L75.58,59l-.2.49-1.73,1.43-.74.45-.25.64h-.35l-.4.4-.49.25H71l-2.32,1.58-.3-.1H68l-.25.2-.1.3L66,65.31l-.45.3-.54-.2-.89.4h-.3l-.3-.15-.25.25-.89.1-.3.15-.4-.1-.25-.2-.54.4-1.24-.15H58.42l-1.68-.32-.25-.15h-.3l-.15.15-2-.49-.4-.3h-.35l-.54-.15-.94-.59-.35-.1h-.4l-.4-.44L48,62.49l.2-.45h-.54l-.49-.3-.69-.59v-.3h.15l-.94-.64.2-.54h-.64v-.2H45l.1-1-.35.15-.15.54-.79-.89L42.92,57l.15-.3v-.25l-.35-.74-.35.3-.45-.44-.2-.64L41,54l.1-.45L40.83,53v-.84L41,52l-.35-.49L39.9,49.8l-.46-.8.54.1-.1-.35-.44-.44-.1-1.73.45-.3-.2-.15V46l.45-.3-.54-.2-.15-.5.15-.54.25-.45-.15-.74.15-1,.3.1v-.94l.45-.25-.15-.25-.3-.15.84-1.33v-.6L41,38.2l.84-1.48.49.2h.25l.25-.2-.25-.1-.2-.25v.25H42ZM39.68,48.25l.25-.25h-.15ZM40.22,50h.25l.15-.25h-.25Zm1.14,3.12-.4.1h.25Zm.35.54.1-.3-.3.1Zm.2-10.78.15.3v.94l.4.49.15-.64.3-.2-.51-1v-.3l.25-.15.1-.35-.15-.54V40.21l-.15-.42-.4.4v.6l.15,1.63-.1.25Zm.45,3.21.14-.28-.15-.54-.2-.25-.25-.1v.69l.15.25Zm-.2.54-.1.35.2,1.43v.25l-.15.15.3.15.2.3-.45.35-.1.3.15.94L42,51l.2.2v.44l.1.1v-.3l.45.1.1.79.2.15.2-1.19H43l-.2-.15.15-.3.25.1v-.35h-.54V50l.2-.94h.3v-.35l-.25-1.09L43,47h-.25v-.35l-.25-.2Zm.4,7.57V54l-.1-.3-.25-.1-.1.3.1.3Zm-.3.44.1.25v.49l.1.2h.35l-.1-.3.3-.69-.49-.1Zm.64-.54.2.1.2-.1v-.54l-.4.25Zm.3-1.1v-.3l-.2-.3v.49Zm.14-18.2.1-.25-.2-.1Zm1.83,19.93L45,54.48l-.2-.1.15-.2-.25-.64.3-.44.15-.64-.2-.54-.59.35H44l.1.64.35-.15.2-.2-.35,1.78.15.64-.15.4.54.25.25-.15v-.35l-.4-.2.3-.4ZM44.08,49l.4-.15L45,47.61l-.3-.1-.35.3-.2.94Zm.2,2,.1-.1-.2-.15Zm.54-9-.4.35v.2l.15.49v1l-.25.1.25.15v.35l-.1.25h-.2l.3,1.19.25.15.15-.1-.1-.35.15-.25v-.44l-.2-.4L44.67,44H45l.1-.3L45,43l-.2-.15.2-1.19-.1-.3h-.4v.35Zm-.54,7.32v.35l.35.4-.15.25v.4l.4-.1V51l-.4.4-.1.25.1.2.25.1.54-.94-.2-.2v-.4l.1-.3-.35-.3v-.3l.3-.4-.15-.2-.1.3-.2.15Zm.45,7.86V56.8l-.1-.2-.25-.1-.1.3.15.25Zm-.35-23,.25.15.1-.35h-.25Zm0,4.45.1.35.35.1v-.64h-.3Zm.15,1.48-.15.59v.49l.2.15.15-.49v-1.3l-.2-.1-.15.25Zm-.1,6.82.3.1v-.54l-.3.1.1.15ZM44.53,58l.2-.59-.25.1v.3Zm.2-19.93.1-.35v-.64h-.3v.84Zm.19,18.72v-.1l.1.25.15-.2v-.25l-.25-.2-.1.3Zm1.73-25.6-.2-.1v.2Zm-.2,20.72h.2v-.4h-.2Zm.2-11.12.25.2.1-.2-.1-.2Zm.64.54-.49-.1V42l-.15.25v.35l.15.45-.15.2.2.1v.25l-.1.59.1.25.15.1.2,1.23.15.54.2.15v-.25l-.15-.64-.15-.2.15-.2.15-.64L47.4,44l-.15-.2.25-.59v-.4h-.3v-.25l.35-.25-.15-.25V40.93L47,41l.15.1ZM46.65,57l.2.1-.1.2v.35l.2.1V58l.44-.3v-.35h-.3l-.19-.52Zm.44-.54.25-.1.2-.44-.35-1-.44-.1V55L47,56.16Zm-.3-22.25h.4V34l-.25-.1Zm0,13.6h.35l.2.15-.45.69v.94l.2.2.15-.15V49l.1-.2.2.45V48l-.3-.79H46.8Zm.3,6.63L47,54l-.2.25Zm-.2-17.16v.4h.35l.2-.1-.1-.1v-.3ZM47.09,50h-.2l.15.2ZM47,31.79h.2v-.2H47Zm.1,6.73h.35l-.1-.35-.15.25-.1-.25Zm0,13.8h.25l.1-.2-.1-.2H47.2l-.1-.2ZM47.55,54h.2l-.1-.2-.2.1Zm.1-7v-.3h-.1V47Zm1.29-6h.25v-.26l-.19-.1Zm.35,16.42V57l-.15-.15L49,57.1v.2Zm-.25-5h.2l.15.2-.15.2v.3h.3v-.94l.1-.25h-.25l-.2-.1-.1.15ZM69.66,50.2l.1-.64.54-1-.3-.35.4-.84-.15-.25v-.4l.1-.25-.15-2v-.35l-.3-.54-.25-1.29-.54-1-1.58-2.23L67,38.61l-.3-.49-.35-.1-.4-.4-.54-.25-.3-.44L64,36.58l-1-.45L62.46,36h-.69v-.2l-.2-.1h-.35l-.22.11h-.3l-.25-.25-.25-.1h-.49l-.84.25h-.54l-.3-.2-.15.25-.45.3h-.25l-.25-.15-.35.35h-.35L54.75,37H54.4v-.3l-.4-.3-.1.64-.25.59L53.3,38l-.49.1-.15.54-.4.49-.54.35h-.35l-.3-.1.1.25.2.15v.35L51,40v.25l.15.15-.45.69-.44.3V42l-.2.54-.45.69-.15-.3v-.3l-.2-.3-.25.74v.35h.49l.2.2-.2.2h-.25L49,44l.25.2.15.35-.4.69-.1.54v.94h.3l.2.15v.3L49.1,47l-.1.15.15.25h.2l.2.25-.15.2v.3l.25.1.15.2.15.59-.4.35.54.3.49.69v.4L52,52.67,53.17,54h.4l.25.15.4.49h.3l1.68,1h.45l1.68.54h.59l.49-.15.49.25.15.25.4-.35L61,56l.25.1.15.3.3-.15.15-.2.25-.1h.35l.1-.25.54-.2.79.2v-.35l.35-.3H65v-.3l.4-.4.79-.3v.3l.2.15.15-.2-.3-.35.89-.79L68.07,52l.3-.1.4-.45.3-.54.44-.4-.2-.15v-.54ZM49.18,39.84l.49-.2-.1-.64-.3.4v-.84h.3L49.42,38v-.49h-.3l-.1.59.1,1.43Zm.2,16h-.25v.3h.25Zm0,5v-.35l.1-.45v-.25l-.2.54v.35Zm.2,1.73v-.3h-.3v.25Zm.15-8.6-.35-.35v.3l.15.15Zm-.26,2.82h.25l.1-.25-.25-.1Zm.35-4.7.18-.3h-.3ZM50,29l.2-.1-.2-.15Zm1.83,4.75-.15-.2h-.3l.15.3Zm-.2,28-.25-.25v.2Zm.1-24.18v-.4l-.25.1v.2Zm-.2-2.67.4.1v-.35H51.7Zm.1,22h.25l.1-.1h-.3Zm.4-2.18.25-.15.1-.3h-.2l-.1.1v.15Zm1.53,7.76.35.1v-.4h-.2Zm.64-27.2-.2-.35v-.3h-.25v.3l.1.3.15.15Zm.35-8.41-.35-.1.15.25Zm1.68,1.73v-.25L56,28.19v.25Zm0,3.46.2-.35-.25.1Zm.2,33v-.2l-.15-.06V65ZM58.31,31.2l.15.2.2-.15V31.1Zm0,31.5h.35v-.3l-.25-.15Zm.35-29.52.1-.44-.3.2Zm-.15-4h.25l.1-.25h-.35ZM61,58.74v-.49h-.25v.3Zm2.37-27V31.1l-.15-.2-.2.49v.2Zm0-1.83v-.3l.1-.84-.3.15v.3l.1.2-.1.15v.3Zm.15,32.49.35-.15L64,62l-.2-.1v-.3l-.15-.15-.1.64Zm.3,1.83.15-.4h-.25l-.1.25Zm.35-4.5v-.3l-.2-.25-.15.3.1.3Zm-.35-26.21.2.1.15-.15-.2-.1Zm.1,24h.25l.1-.2H64Zm0,1h.25v-.18l-.2-.1Zm2.42.4v-.25l-.2-.15-.1.25Zm1.83-1.19.15-.2.25-.1v-.35h-.3l-.2.44Zm0-22h.2l.1-.3h-.3Zm.1,17.06.25.1.2-.1v-.3h-.3Zm.2,1.09.25.1v-.24l-.1-.25h-.25l-.1.3Zm-.2,5.19h.3l-.3-.15Zm2.27,0v.3l.2.15.3-.44-.1-.2-.1.2Zm.3-4.06.25-.94-.15.35h-.3V55Zm-.1,1.19-.1-.25v.35Zm-.1.2v.3H71l.2-.4-.4.1Zm.4,5.84-.1-.25h-.3v.25Zm-.1-6.68v-.25l-.15-.1v.25Zm0,2.37.1-.59-.3-.1v.54Zm2.18.1h.2l-.15-.59-.25-.15v.59ZM73,51h.35l.3-.4-.2-.2L73,50.18Zm.1,1.83.64.4.1-.35-.4-.79h.2l.1-.2h-.25l.15-.15-.2-.15v-.3h-.3l-.1.25.1,1.14Zm0,.74v.25l.2-.15-.1-.15Zm.45,3.66.15-.4-.1-.69-.2-.1-.15.84.1.25Zm-.1-1.83.2-.15-.2-.15Zm1.83-13.15V42l-.2-.1v.25Zm0,7.57.25.2v-.84L75,49l.2.69Zm-.1,3.12.15.45v.3l.25-.2.1-.25v-.49h-.3Zm.06-12.12.25-.15.1-.3h-.3v.25Zm0,14.79.35-.1.2-.25-.1-.3v-.35l-.15-.2-.3.59ZM75.59,54v-.26h-.3V54Zm0-9.79V44h-.15Zm-.1,4.2h.25v-.25L75.59,48v.25Zm0,8.51h.3v-.3h-.35Zm.44-9.3-.1-.54-.25-.1v.35l.1.25Zm-.25-7.86h.15v-.2h-.15Zm1.83,3.86.3-.15v-.35l-.3.15Zm0,7.81.2-.15-.1-.2Z"/><path class="cls-1" d="M87.55,27l.2-.15v-.3l.54.1H92.4l1.09.35.45.35V28l.15.2-.1.54.1,1.09-.2.45.3,1.73-.2.54V33l.2.54v.35l-.4.1.15.35.25.2v.35l-.25.49.1.49-.1,1.48.3.64L94,39.06v2.37l-.25.49.25.54v1.38l-.3.35.3.6-.2,1.73.1.54v1l.3.4L94,49.59l.25.44-.1.3-.15.15,1,2.23.69,1,.25.2-.1.35.84.4.2.25v.35l.89.2,2,.84h.64l-.35.4h.25l.49-.3h.35l.1.4.15-.2-.1-.2h2.13l.25-.2.59-.25.3.15h.3l.59-.54h.25l1-.69.64-.15.1-.79.3-.1.45-.64.35.2.15-.25.15-.89.35-.35h-.44l.59-2.23.3-.79-.25-.54.35-.64-.15-.25v-.3l.35-.84-.44-.54.44-.54-.15-.15h-.3v-.59l.2-.79h.3l.3.35.1-.2v-.2h-.3l-.25-.49-.4-.35.25-.44-.15-.59V40.54l-.1-.74.25-.54v-.54l-.2-.2-.15-2.32.1-1.19.2-.84-.35-.4.2-2.72-.2-.2.2-.54-.1-.84.2-.25-.25-.49.15-.84.44-.3v-.25l.1-.2.44-.35.64-.2,1.68.15.64-.25.64.25.3-.1.74.1.25-.15.54.2h.59l.3.1.64-.25L118,27h.2l.15-.2h.3l.79.84.3.54-.15.54v2.57l-.15.25.3,1.78h-.25l-.25-.15v.2l.45.59-.1.3.15.79-.15.2.15.59-.1,1,.25.54-.3.25.1,1.24-.1.59-.35.54.15.1h.3l-.4.54.15.25.35.1-.54.59.49.3v.4l-.64-.1v.3h.3v.64l.15.2-.1.25-.3.1.2.25.15.54v1.29l.1.3-.4.54.2.54.1,1.14.2.49-.25.4-.25.1.15.2v.89l.2.35-.25.54-.49.3.54.15-.1.35v.89l-.4.44.3.15-.94,2.67-.35.1.1.44-.15.25-.25.1.1.49-.2.2-.79,1.38-.3.15v.35l-.64.54.1.4-.35.4-1,.59-.35.35h-.35v.54l-.15.2H113l-.25.15-.89,1-.54-.1-.15.15v.25h-.59l-.45.25-.15.3h-.3l-.45-.15-.35.54-.3-.15-.15-.25v-.3l.3-.15-.3-.79-.25.15-.15.25V65h-.44l-.2.15-.2.45h-.35l-.2-.2.3-.25h-.35v.3l-.64-.1v.39l-1.34.3-.79-.1-.25-.2-.25.2-.49.2h-1.24L100.35,66l-.84.1h-.25v-.25l-3.12-.35-1-.44-.25-.2h-.64L93,64.42l-.74-.49h-.35L90.57,63h-.35l-.35-.69-.3-.1L87.9,60.47v-.3L88,60l-1.09-.64V59l.3-.35L87,58.54l-.45.1L86.3,58l-.3-.5V57l-.4-.4-.25-.54v-.49l-.4-.3.25-.49V54.1l-.2-.26-.25-.1-.49-2.57h.54l-.45-.64-.25-.1.35-1.19H84v-.35l.4-.3h.25v-.35l-.4-.3-.15-.3.25-.25L84,46.92l-.1-.59L84,45l-.15-.79.25-.1.49.2v.3l-.35.35.15.15h.49v-.35l-.2-.4V44l-.49-.1-.2-.49.2-.49.2.44.35-.15v-1l-.2-.2-.15.15v.4l-.2-.15v.25l-.2-.54-.1-.89V41l-.1-1.15L84,39.3l.1-.54.15-.25.25-.15-.15-.15H84l-.25-1.58.25-.49-.15-.49V33.22L83.7,30.4,84,30l-.1-1.26.1-.59.25-.49v-.45l.15-.2,1-.3h1.24l.54-.2.3.1v.2Zm-2.82,7.75-.15-.25h-.25l.15.15Zm.64,14.59v-.25l-.44-.2v.3l.2.25Zm-.1-1.93h.25l.1-.2h-.35Zm.89,5,.3-.1.1-.35h-.3v.2Zm.44-1.93-.25.64.3.1.2-.15.3-.49h.3v-.1H87.1l-.2-.15-.34-.58.25-.2.35-.1-.1-.64-.35-.35-.1.59-.25.54V50l.1.25Zm0-3h.25l.3-.69-.2-.15-.1-.3.44-.54H87l-.4-.2-.15.54.15,1.09Zm0-4.35h.25l.3.84h.35l-.3-1.09v-.3h-.59Zm0-12.81H87v-.2h-.3ZM86.7,42H87l.1-.25-.3-.1Zm.64-4v-.35l-.35-.4-.15.25v.26l.2.2Zm-.2,2.92L87,40.73l-.1.2Zm0,4.1.2.1-.2-.25Zm.1,7.42.25-.1V51.8h-.3l-.1.3Zm1.6,1.32-.1.25.15-.1v-.25l-.3.1Zm-.1-15.53.2.35.15-.3-.15-.15Zm.44,10.24h.25l.1.45.2-.1.2.1.1-.64L89.68,48l-.15-.3.1-.25-.25-.1V47l.1-.2h.2l.1.2v-.69l-.35-.1L89,45.68l-.3-.1v1.09L89,48.2ZM88.74,53l.25.15.1.3.4.1v-.3l-.3-.45L89,52.7l-.15.15Zm0,6.82h.35l-.25-.25ZM89.09,38l.1-.3-.2-.15-.15.3Zm0,5.93.1-.45h-.3v.3Zm.1,7.57.1-.49-.1-.25-.2-.15-.15.54.1.25ZM89,49.19h.3l.2-.1-.3-.15-.2-.15Zm.1,7.07.15-.35.4-.49-.15-.84-.2.2-.15-.49-.2-.15.15.64-.1.94V56Zm-.15,1,.25.1-.2.54.3.1.25-.1v-.54l-.25.15.25-.79H89.2l-.2.2Zm0-20.08h.3l-.1-.2-.2-.1Zm.1,4.9.2-.25H89Zm.54-7.47v-.3h-.3l.1.25Zm-.35,9.79.1.35h.25l.15-.25v-.59h-.2l.1.15v.25Zm0,14.69.2.1-.2-.3Zm1.63-1.93v-.25h-.25Zm.1-11,.2,2,.44-.69-.1-1.14h.3l.35-.1-.25-.3-.49-.1-.15.3Zm.45,6.28.3.64h-.25l-.15.25.3.25-.64.54.2.15.1.25.1,2.37-.2,1,.49.25.2-.25-.35-.54.25-.49.2-.15v-.4l-.4-.45-.1-.25.4-.49.15-.59-.54-.1-.1-.3h.49v-.74l.45-.15-.15-.3V52l-.1-.2-.45.35Zm-.15-2.18.35-.74-.3-.3-.25.54v.3Zm.25-9.4-.1-.2-.25-.1.1.25Zm-.25,3.07.2-.15.15-.3h-.35Zm.49,15.86.25-.2V59l-.54-.35-.15.2V59l.3.49ZM91.46,49h.3l-.3-.2Zm.1-17.22v.3l.25.15.15-.3-.15-.25Zm0,13.06h.2v-.2h-.2Zm.2-12.06V33l.2.15.3-.3L92,32.74ZM92.11,51l.1-.64-.3.1v.3Zm0-2.77.1-.25-.2-.1Zm0-19.53h.2l.1-.2h-.3Zm1.82,34.5.3-.15.1-.25-.1-.25L94,62.8Zm.84-2.82v-.25l-.15-.3-.2-.15h-.25l.2.2v.3Zm.1-6.68h-.3l-.2-.1.1.25h.25Zm1.43,3.9.64.2.1-.35-.3-.54H96.3Zm.54,3.86.1-.25-.15-.64-.15-.2.2-.3-.2-.25-.24,1v.35l.15.2Zm-.2-2.82v-.25h-.15l.1.2v.35l.25-.1.15-.35.2-.2-.35-.2v.3Zm-.14,3.15.15.54.2.2.2-.84h-.3Zm.15,1.38.25-.1v-.25h-.3ZM99,58.09l-.17-.3h-.25l.1.2Zm0,1.24.25-.45-.1-.25v.15l-.15-.3h-.25l-.1.49.15.25ZM99.15,63v-.6l-.1-.2-.2-.1-.1.25.15.59Zm-.25,1.48.2-.15V64l-.35-.4v.25l.1.3Zm-.12-4.68.1.35.25-.15.1-.3H99Zm.64,1.2-.15-.3-.3-.15v.3l.2.25Zm.1-2.37-.1-.25v.38Zm1.33,3,.25-.1v-.35l-.3-.1Zm.3-1.83v-.1l.2.2v-.25h.15l-.25-.44-.15.3Zm.25-1.19.1-.44-.35-.1v.45Zm.2,4.6.1-.54-.44-.1-.1.3.15.25Zm.1,1.09h-.35l-.15,1,.3.1V65l.25-.64v-.3Zm.1-3.56v-.35l-.15-.1v.25Zm-.1.54h.2v-.2h-.2ZM103.43,64l-.2.35.2.15h.3l.2-.1.15-.25-.3-.2Zm.2-5-.1,1.29.25.44-.1.35v.68l.3.2.15-1.38-.13-1.3-.2-.59V58.1l-.3-.1-.15.25.2.54Zm0,4h.25v-.64l-.1-.25h-.25l-.1.3v.35Zm1.93-5,.25.2.3.49h.35l-.15-.59v-.54l.2-.25-.74.1-.1-.1-.1.35Zm.89,2.57.2.3-.1-.54-.4-.3v.64l-.4.84.25.1.1.25v.35l.3.1V62l.2-.35V61.3l-.3-.1V61Zm-.64,3.86.54.15-.15-.74v-.35l-.35-.1v.25l.1.54Zm.54-4.85-.25-.4v.4Zm.3-3.86v-.35l-.25-.1v.3Zm2.27,3.12-.2-.2V58l-.1-.3-.1.1-.49-.4-.2.2.25.1.15.25v.84l.35.15Zm-.94-2,.25-.1h.25v-.4l-.49-.1v.6Zm0-2.37.3.2.1-.35-.2-.3-.1.25Zm.2,7,.3.44v-.35l.3-.4v-.35l-.45-.2.1.35-.1.25Zm.3,1.33-.1-.35-.1.2Zm-.1-2.72.25-.2-.15-.25-.1.2Zm.45-2.72-.2-1V57l.1.2Zm1.19-.3.64.35.1-.25-.2-.54-.25-.1-.2.25Zm0,3.65.54.25h.2l.1.2-.1-.89-.4-.2-.25.4Zm.1-1.93.45-.1v-.4l-.1-.25v-.32h-.25l-.15.79Zm.1-26.21.25-.15-.15-.2Zm.25,7.62.35-.64-.15-.2-.2.1-.2.54Zm.2-9.59.15-.25V30.1l-.45-.25v.35l.15.25Zm-.35,7.76.35.35.45-.25.1-.2-.4-.45v-.4l-.54-.25.25.94Zm0,3.26.35-.25-.35-.1Zm.45,6.13-.1-.4h-.35v.25l.15.15Zm-.2,15h.2l.1-.25-.54-.35.2.3Zm.45-26.9-.1-.25h-.3l-.25.1.25.2Zm-.64,23.64h.3l-.3-.2Zm.3-30.31h.2V29h-.2Zm0,20.28.25-.2-.25-.15Zm0,4.45.45.2v-.46l-.25.1Zm.35-.69V53l-.15-.15-.1.25Zm-.1,10.14.15-.2.3-.1v-.25H111l-.2-.1-.1.35Zm0-13.35h.25v-.26H111Zm0,.74.35-.1-.1-.25-.25-.1Zm.54-7.32-.1-.35-.2-.1v.25Zm.45,19.83.25-.1v-.25l-.25-.1Zm.74-8.85.25-.15v-.91l-.35.15-.1.3Zm.1,5.29-.1-.3-.2-.15v.35Zm-.2-8.06v.69l.1.3.2.2v-.64l-.1-.54Zm.35-7.76v-.2l-.2-.15-.1.25.1.2Zm-.25-1.83.25-.2.84.15-.15-.25-.54-.2h-.3l-.15.2Zm.1,9.5.35.1V50.58l.1-.35h-.3l-.2.15-.1.25v.69ZM112.64,29H113v-.4l-.25-.15-.1.3Zm.35,4.6-.2-.1-.15,1,.1.3.25-.15h.3l-.1-.54.1-.3-.3-.44Zm-.35,2.82H113l.15-.15V35.12l-.54-.25Zm0,1.19.45.2-.15.25.25.94-.25.45-.2.89.25.15h.3l.15-.2-.35-.3.2-.54V37.76l.1.2v-.3l-.1-.3-.44-.45-.3-.1Zm.25-5.29.54.25v-.4l-.4-.64.1-.4h-.3l-.1.3.15.54Zm.1-2.13.1-.54.1.2V29.5h-.3l-.15.54Zm-.25,30.71h.3l-.15-.2Zm0-19.73h.64l-.15-.2h-.3Zm0,3.46.44.25h.3v-.25l-.49-.2Zm.49,2.77.25-.3-.3-.15L113,46.5l-.25.1.15.35.2.15-.1.2Zm-.1,1.63v-.54l-.2-.1-.1.25.1.3Zm0,10.39v-.3l-.13-.37-.15.25v.3Zm2-4.65.15-.2-.18-.82.1-.3h-.25l-.15.54.15.59Zm-.25-22.2.45.1v-.35l-.2-.2-.15.2Zm.54,6.87-.1-1.38-.15-.2h-.3l.25.44-.1,1.14.1.94.2.3.4-.54V40l-.15-.1Zm-.54,2.82.45.2v-.59l.15-.49-.3-.1-.25.45V42Zm.2-6.58.1.35-.25.54v.2h.2v.59h.54V37l-.35-.4.2-.64-.1-.3-.1.25Zm-.1-.79.25-.1.2-.44h-.25l-.2.2Zm0,9h.25v-.25l-.25-.1Zm0,4.3v.3l.15.15v.2l.25-.1V48.1l-.25.1Zm.15,4.3.3-.1V52l-.1-.25-.25-.15-.1.64Zm.2-20.62.15-.2v-.25l-.15-.25h-.25v.59ZM115,33.79h.3v-.25l-.2-.15-.15.2Zm0,17.65.35.15.1-.25-.3-.1Zm0,4h.3l-.3-.2Zm.1.89.4-.35h-.3l-.2-.1v.3Zm.3-9.3.1-.49-.1-.25-.2.3-.1-.3v.64Zm2.08-9.94-.54-.1.69.79.25.15-.1-.54.25-.49-.45-.35v.35Zm-.15,9.59.15-.4-.15-.15H117v.35Zm-.2-10.34.25.2.44-.64v-.35l-.3-.1-.35.3-.1.3Zm.1-6.13h.35v-.35l-.25.1Zm0,8.16.25.35V39l.25-.15h.2V38.4l-.45-.4Zm0,3.56v.3l.3.44h-.25v.54l.15.15.15-.3.15-.84L118,42v-.23Zm0,2.27h.35v-.3l-.25.1Zm.45,1.53.1-.3v-.25l-.25-.15-.15.25.1.3Zm-.35,1.58.1.25.25.1.1-.45h-.25Zm0,2.37.15.25.35.1v-.25l-.25-.2Zm.3-1.19h.2v-.2h-.2ZM119,46.22h.2v-.3H119Z"/><path class="cls-1" d="M156.29,46l.3.1-.35,1-.1.59h-.35l-.15-.25.15.79v.4l-.2.2-.25.79-1,1.14-.3.79-.45.4v.25l-1.29,1.09-.45-.15-.64.89-.45.35-2.47,1-.2.3-.54.25-1.19.15-.54.25-.59.1-2.42.1-.54.15-.74-.2-.64.25-.15-.25v-.25l-.3-.1-.1.54L138,56.5l-.15-.2-.59.4-.69-.4-.25.1v.2l-.35-.1-.54.2-.2-.1-.3.15.15,1.58-.3.44.3.54-.25,1.78.3.49-.64.74.2.25.25.1V63l.1.49-.2.25.15.64-.25.45h-.59l-.15.25-.3-.1-.35-.4-.32.24-.49.3-.15.25L131.2,65H130l-.4.44-.59.2-.25-.25-.49-.1-.54.35-.44-.25h-.54l-.54-.64-.25.15-.15.25-.25.15-.35-.1L125,65v-.2l.2-.15h.25l-.1-.4-.3.15h-.25v-.54l-.15-.54.15-.25V62.4l-.12-1.4.1-.3V59.43l.2-.1-.2-.1.3-.69-.3-.4.1-.44-.2-1.14v-.49l.2-.3-.2-.35v-.59l-.1-.35.45-.35-.1-.3.2-.45v-.44l-.35-.3-.15-.54.41-.31v-.25l-.25-.64v-.59l.2-.25v-.25l-.2-.1.1-.3.45-.44-.3-.18-.3-.1.1-1.09.54-.2L125,47l.2-.15h.3l.15-.3-.15-.15-.49.15v-.3l.3-.44-.1-.25-.45-.2.25-.52-.15-.59-.1-1.19V40.64l-.1-2.32.2-.54v-.3l-.2-.35V35.75l-.1-.25.25-.4v-.25l-.15-1.68.2-.79-.3-1.09V29l.3-1.09-.1-.35.35-.44.49-.3.89-.3.59.15.49-.2h.35l.44.25V27h.3l.59-.35.25.15.15.25.54-.4.3.1H131l.59-.2,1.24.25.59-.1.25-.15.54.35.25-.15h.84l.4.35.64-.49h2.32l1.63.2.59.2.74-.45h.4l.49.4.49-.2.59-.1.25.1.15.2.3-.1h.3l.2.15.45-.2.54.1.15.2.44.2h.35l.1.74h.3l.35-.3.79.15.2.15h.64l1.19.89.3.1v.4h.59l.69.2-.4.45.3.15.59.1.2.25-.35.1.3.1.35-.1.2.2v.35l.45.4,1.33,2,.45.44v.3l-.35.35h.35l.2.1v.4l.1.2.25.1-.1.3.1.2.45.25-.1.3-.44.35v.4h.3l.1-.64.54,1.43v.94l-.15.3.2.25.15.54v.61l-.35.84.44.2v.4l-.2.59v.3h-.44v.67l.2-.1v.4l-.25.3.4.45h-.3l-.1.25V46ZM125,63.34h.35l.2-.3-.25-.2-.15.25Zm.35-10.48.15.3.35.1v-.35l-.2-.2Zm.3,3v.35l-.15.84.25.1h.54l.15.15-.2.49.1.25.45-.4-.2-.25-.1-.84-.54.35-.1-.35.25-.49-.1-.27-.1.1Zm0-1.43.3-.1.15-.3h-.2l-.2.15Zm.35,9h.35l.2-.15h.3l-.25-.54-.4-.4-.35.49v.3Zm.49-2.62-.45.49-.1.25.25.25.54-1.14.2-.25-.4-.74h-.25l.2.2-.15.64Zm-.3,3.66.35-.1V64l-.3-.1-.1.25Zm0-5.69.2-.1v-.25l-.2-.1Zm.2-30.56.15-.2v-.3l-.25.1v.25Zm.25,34,.25-.2v-.54l-.2.1v.3Zm.64-35h.3l-.1-.35v.25Zm1.09,33.88.1-.25-.2-.2-.1.3Zm0-25.62.25-.1.25-.49-.1-.59h-.3l-.2,1Zm-.1,18.25.45-.2v-.25h-.3l-.1.2Zm0,3,.2.1.1-.2-.2-.1Zm.4,3.56.15-.54V58.51l-.1-.49h-.3v.64l-.15.64v.59l.15.25Zm-.3,4.2.25-.1.15-.25-.1-.2v-.2h-.1l-.15.49Zm.49-34.91v-.35l-.25-.1v.35Zm-.2,18,.25.1.1-.3-.15-.25-.15.15ZM129,55l-.1-.3h-.25V55Zm1.58,6.48h.25l-.25-.2Zm.25-13.35.1-.35-.25.15Zm0,10.53-.1-.4v.25Zm0,5.64.4-.35-.49-.3V64Zm-.1-33.43v.69l.15.25.2-.3.1-.64-.19-.08Zm0,15.63.25-.1v-.25h-.3Zm0,2.92v.2l.1.1h.2l.1-.1v-.2l-.1-.1h-.2Zm0,7.57h.3l.1-.2-.1-.2-.15.2Zm0,2.13v.35h.4l.1-.45-.25.1Zm0,1.09.49.2-.1-.3-.2-.2Zm0,3.12h.35l.2-.2.1-.3-.25-.1-.35.35Zm.2-34.42h.25l.1-.25-.25-.1Zm.1,22.45V52.9l.15-.79.2-.2-.2-.25.25-.44-.15-.15v.2Zm.55,9h-.3l.15.15Zm1.3-1.41v.3l.3.44-.2.15v.3l.74-.35-.15-.2V59l-.47-.24Zm.35,2.18-.3.54v.4l.54-.1.1-.84-.49-.15Zm-.35,2v.35l.49.3.1-.49-.3-.2Zm.45-33.78v-.3l-.25-.1v.3ZM133,58.14l.25.1.35-.4v-.4h-.4v.49Zm.3-22.55V35l-.2-.15v.64ZM133.1,28l.4-.45h-.3v.2Zm0,9.5h.3l-.1-.2-.2-.1Zm.1-1.19h.2v-.2h-.2Zm.2,19.53.2-1.29h-.4v1.09Zm.1,7v-.35l-.25-.2v.35Zm.15-32.59-.25.1.15.15Zm0,23.84.25-.15-.15-.2Zm.1,2.27h.2v-.15h-.2Zm.45,3.86.49.1V59.8l-.15-.25-.3-.15v.54Zm7.3-24.15-.3-.4-.25-.1-.15.2-.44.15-1.53-.2-.59.15-.24-.1v-.3l-.25.15-.15.25-.25.1-.1-.2-.25-.1-.59.15-1,.49-.4.35-.1.3v.54l.2,1.09-.3,1.19.2.54-.1.3v.44l.1.3-.35.35.15.2.3,1.19-.35.54L135,44v2.42l.35.79.64.1.4.35.25-.1.54.2.4-.3h.49l.3.15.3-.2h.54l.89.2h.59l.25-.15.64.2.64-.35H143l1.33-.59.2.2.35.79.2.2.3-.84H145l-.15-.15v-.35l1.5-1.79V44l.2-.25h.2v-.49l.15-.2h.2l.35-.2V41.67l.25-.49-.25-.1-.54.1-.25-.1.2-.25-.1-.59.3-.35-.2-.2-.2-.79h-.2l-.4-.4-.3-.89-.3-.1-.2-.25-.25-.74-.15.25-.3.1-.35-.35-.49-.3-.64-.1v-.33l-.25-.4-.2.49-.25.15-.3-.15-.44-.49v.45ZM135.76,52l-.2.3v.35h.3l.15-.2v-.69l-.35-.1.15-.89-.25-.2-.15.3v.59Zm0-20.72v-.4l-.25.2Zm-.1-2.77.1-.1-.2-.15ZM136,50.28l-.1-.3-.35-.15.15.35ZM135.65,54h.2v-.15h-.2ZM136,30l.2-.15-.2-.15Zm0,2.27.4-.1h-.25Zm.2,21.07.2-.25-.25-.1-.15.2ZM138,30.2v.64h.1l.1-.35-.1-.84-.3-.1-.25.1.15.25Zm-.35,3,.1.2.35-.3h-.3Zm0,22.65h.25l.1-.2h-.25Zm.15-4.75.3-.49-.1-.25-.3.49Zm.2-1v-.71h-.25V50Zm-.25,2.27v.54l.59-.49.1-.25-.1-.25-.25-.1.15.25-.15.2Zm.35,1.93v-.81l-.3-.1v.25l.15.54Zm.2,1.09-.15-.54-.25-.4-.15.3V55l.25.25Zm1.83-5.19v-.3h-.3v.25Zm.35,4.35-.1-.3-.44-.25v.35l.15.2Zm-.54.54.25.2.49-.1-.3-.45-.2.2ZM140,52l.25-.1.3-.4-.25-.15-.15-.3.3-.1.1-.35h-.35l-.2.2V52Zm.64-2.47-.64-.4v.35l.3.15Zm-.3-20V29.4l-.2.1Zm.2,1.29V30.3h-.3l-.15.1.15.4Zm-.3,2.23.1-.54-.1-.2-.15.59Zm0,20.23.54.2v-.35h-.3Zm.1-21.81.1.2h.25v-.3Zm2.47,19.39h-.35l-.3.45-.15.49-.15.2.15.1-.3.45.25.1.1.25v.35l.3.15h.25l.3-.15v.4l.44-.1V53.2h-.54v-.35l.15-.59-.4-.1.2-1Zm-.3-19.73.15-.3v-.3l-.2-.25-.2.3v.25Zm-.15,19.44.44.1.15-.25h.2l.1-.35-.1-.3-.25.15h-.1l.1-1.43-.45-.2-.2.54v1.34Zm.15,4.2.2-.49h-.3l-.1.25Zm-.15-24.58h.3l.15-.2-.15-.25v-.3l-.2-.2-.15.59Zm.1,3.31h.25v-.25l-.15-.15-.1.2Zm.25-1.48v-.25l-.2-.1Zm.35,19.63.2-.1V51.3l-.2-.1Zm1.9-2.82-.54.89.15.25.25.15.54-.45h.35v-.2l-.69-.89-.1-.4h-.3v.3l.2.15ZM144.85,51l-.4,1.48.64-.2v.25l-.3.59.15.35-.4.1.1.3.2.15h.35l.15-.59v-.69h.2l-.35-1-.2-.2.25-.15.1-.3-.25.25Zm-.1-17.61.25-.2-.25-.15Zm.44,2.27-.1-1.19-.1-.25-.15.15V35l.2.54Zm-.1-4.1v-.2h-.25Zm-.25,19,.35.1v-.3h-.25Zm.1,4.1.15.1h.3v-.3h-.3Zm.25-24.28v-.25L145,30v.2Zm1.73,19.73h.35v-.35l.35-.4-.15-.2V48.7l-.2-.2-.3.4v.89Zm.1-20.47h.2v-.35H147Zm0,14.12.2.25v.4l.35.1v-.3l.3-.69-.49-.1v.35Zm0,2.77h.2v.3l.25-.1.15-.2v-.3l-.15-.15-.45.2Zm0,1.29.25.1.35.45.15.64.2-.64-.25-.49-.45-.45V47H147Zm.1,3.91.15-.49-.15-.15-.1.35Zm.1-11v-.3l.2.1v-.3l-.25.1-.1.35Zm0,10.19.15.1.64.1v-.36l-.64-.15h-.2Zm0,1.68h.3l.35-.35L148,52l-.35.1-.25-.2h-.2v.49Zm.3,1-.3-.1v.4l.45-.3v-.2Zm-.2-8.06h.2l.1-.25-.2-.1-.1.25ZM148.59,44h.25l.16-.25h-.3Zm.44,8.75.49-.25.1-.3-.4-.1-.1.35Zm.1-3.91.15-.25.35-.1-.1-.3.3-.49v-.25h0l-.2-.15v.35l-.35.54v.3Zm.3,1.63.2-.25h.25l-.15-.89.15-.59h-.3l-.25.2-.2.59.15.64Zm-.2-11.42.4.4.15-1-.3.1-.15.25Zm.3,3.56-.3.1.3.4-.15.3.15,1.14-.25.49.1,1.24v.3l.45.15v.35H150l-.1-.3.2-.59-.54-.49.15-.25v-.94H150l.1-.2-.35-.2.44-.45-.35-.94-.2-.25Zm-.2-8.46h.3V33.9l-.15-.15Zm.3,3.91.2-.45-.15-.25-.25-.15-.1.3.1.35Zm-.1,3.31V41l.2-.35v-.3l-.15-.2-.3.45v.54Zm.25.15-.45-.1.15.25Zm-.45.74h.2v-.2h-.2Zm0,12.21h.54l.1-.2-.25-.1-.3.15Zm.2-21.07.2-.15-.2-.15Zm.1,13.9v-.25l-.15-.15Zm0,4H150l-.1-.25-.25-.15-.1.2ZM150,35v-.4h-.35l.1.3Zm2.08,6.38-.49.94V43l-.25-.1.1.35.44.2-.2,1.19.49.25h.35v-.4l-.4-.79.35-.54v-.3l-.25-.2.25-.59v-.64l-.2-.74-.35-.1.25.49Zm-.64,5.79.3.1V47l-.2-.25Zm.4-12.36.25-.1.1-.59-.25-.1-.2.54Zm.1,14.89v-.3l-.15-.25-.1.35Zm-.2,3,.3-.1.15-.25H152l-.2.15Zm.35-15.23-.25.1.16.17Zm0,2.67v-.35l-.2-.25-.1.44Zm-.25,8.31h.74V48l-.15-.25-.59-.4.2.54v.2Zm.74-2-.25-.94-.4-.45v.35l.2.74.2.2Zm-.4-10.24.25-.15-.15-.2Zm.54,10.88-.15-.54h-.3v.35l.15.2Zm1.29-4.4.15.25v.3l-.49.74.15.2.3,1.93-.44.15v.3l.3.25.59-.84.35-.89-.2-.15-.1-.3-.2.64v-.4l.25-.49v-.64l-.25-1.38h-.3Zm.44-3.56v-.74h-.64l.3.2.15.3Zm-.54,9,.2-.25h-.3Zm.4-6.23v-.49l-.1-.64-.25-.59-.15.64v.64l.15.25Zm-.2-4.35V38l.3.1.2-.1-.1-.44h-.4ZM155.94,44l.25-.1.15-.25v-.54l-.15.64Zm.25-2.27.2-.1.1-.25h-.3Zm.2,1,.25-.1.3-.45h-.44l-.15.3Z"/><path class="cls-1" d="M166.48,35.29l.74-.25.2-.2h-.3l-.2-.15.1-.25.49-.3.15-.25-.45-.44.1-.35.25-.1v-.3l.59-.3-.25-.4v-.3l.44-.3v-.3l-.1-.15.2-.25.4-1.14.49-.74.15-.59.69-.49-.1-.25.2-.64.54-.2.69-.1h.64l.49.25.54-.25H174l.2.15.3-.4.25.15.59.1h1.29l.49.15h.3l.2-.15.84.4h.49l.2-.1.1.25h.35l.79.35.3.4v.89l.49.3.15.59.25.44.15.54-.1.35.44.15v.4l.4.74-.1.35,1,1.48.1.89.54.94.25.89v.35l.49.4.2,1.19.25.49.25.15,1.2,3.41.79,1.53v.35l.35.44.1.3-.1,1,.3.44.35.2-.1.49.1.25.49.25.15.59.54,1.33v.35l.4.3v1l.25.2.59,1,.54,1.73.15.25-.25.49.2.15h.35l.1.54.59,1.24v.59l-.59-.15.49.79.25.2.2-.2-.1-.44.2.15v.69l.35.4.2.54v.59l.45.2.25,1.24.2.54.4.49v.45l.1.25.44.4-1,1.06-.15-.15-.4.54L192.4,65l-.94.44h-.35l-.25-.15-.1-.35-.49.25-1.09-.1-.45.2-.54.1H186l-.45-.35-1.09-.49-.54-1-.3-.84v-.35l-.79-1.58-.35-.49L182,60l-.69-.15-.35-.3-.54.2h-.64l-2.13-.25.1-.35-.2.15v.3h-1.83l.15-.25-.1-.35v-.3l-.35.2v.59L174,59.6l-.44-.3-.64.44-.59-.35-.35.15-.84-.1-.2.2-.54-.25-1.38.15-.74-.1-.89.84-.1.35-.25.1-.3-.1-.3.59.25.1h.25l-.2.2-.15.54v.4h-.44l-.49.79v.2l.2.2-.15.54v.35l-.79.35h-.54l-.25-.2-.1.25v.4l-1.93-.2-.25-.1-.54.25-.59.1-1.24-.15-.2-.45-.2.2-.15.35h-3.46l-.4-1v-.69l.25-.1v-.64l.25-.49v-.35l.35-.1v-.59l.15-.3.25-.15h.25l.15-.25.15-.59.15-.25-.1-.25-.25-.1.4-.35.25-1.14.35-.45.1-.94.45-.15v-.59l.81-2.08.1-.64h.54v-.4l.1-.3.25-.2-.1-.3.2-.79.44.1V51l-.3-.44.35-.45.2-.94L161,49l.44-1.09.2-.2.35-1.14.25-.49.15-.59.64-.25-.2-.74.2-.25.49-1.19.25-.2-.1-.64.44.1.25-.94V41l.3-.49.2-1.24L165,39l.45.2.2-.2v-.64l.2-.2h.35v-.3l.2-.54-.25-.2.35-.49.54-.1-.2-.2-.25.1-.1-.15.1-.49Zm-7.27,23.94-.2.1.3,1v1.29l-.15.54.2.2.15.54.2.2.1-.25v-.36l-.3-.45v-.25l.54-.3-.2-.44-.15.2V60.8l-.15-.2v-.2l.15.1.1-.84-.44-.35-.1-.64H159V59Zm.59-1,.1.25h.3l-.15-.3Zm1.14-.3.2-.2v-.35l-.25-.1v.25Zm.35,5.29.2-.59v-.4l-.1-.3h-.15l-.15-.15L161,62v.76l.1.3Zm.45-8.85-.1-.35-.25.1-.2.54.3.1-.1.45.25.1.49-.1-.13-.42.1-.59H162l-.2-.3v.3Zm-.54,5.93.25.15.3,1.29.2.15.1.44.1-.2.15.2V62l-.15-.44.15-.2h-.25l-.15-.64v-.79h-.35Zm.2-1.43.44.35.3.1.15-.54-.1-.3-.59.15Zm.54-1.73v-.49h-.35l-.1.25.15.2Zm-.3-1.14.2-.1.1-.25-.2-.1v.24Zm.2.49v-.3l-.2-.1.1.25Zm-.1,1.88.1-.15h.2l.1-.45-.49-.2v.54Zm-.1,6.33.3.25-.1-.44Zm.3-1.83.25-.2H162Zm1.53-9.25-.1-.15-.25-.1v.25Zm-.1,4.15h.45l.54.15.4.35v-.54l-.69-.4h-.4l-.2-.44h-.15l-.15.35v.3Zm.2,1.24.1-.54-.2-.15-.15.25v.35Zm-.25-6,.35.25v.53l.3-.15.15-.3-.25-.2v-.35l.15-.4-.3.1-.2.25Zm0,8.11h.15v-.2h-.15Zm0-6,.4-.1-.2-.35-.1.2Zm.1,4.2-.1.84h.3l-.1-.3.2-.15.15.1h.3l.1-.49v-.25L164,59l-.25.2Zm.1,1.38.1.54v-.3l.2-.1v.35l.3,1,.15-.54V61l-.15-.3-.2-.15Zm.2-8.6.25-.2.1-.35-.35-.1-.15.35Zm.2,4.55h.54l-.35-.4-.49-.25.1.4Zm0,6h.4v-.3l-.15-.15-.15.2Zm.1-7.57.2.1.1-.2-.2-.1Zm.1-1.29.3-.2h-.2Zm1.29.84v.3l.45.3.15.2.15-.3v-.4l-.59-.15Zm0,2.27.25.45-.1.64.1.3.74-.2L166,57l-.2-.25Zm.1-3.21.35-.25-.25-.2-.1.2Zm.1,2.13.25.1v-.3l-.15-.35-.1.25Zm.45,4.55.15-.15v-.59H166l-.2-.15v.4l.1.3Zm.25-13.25-.25-.4v.49Zm.3,9.15-.15-.25h-.3l.15.25Zm-.35,3.26v-.15h.3l.15-.1.1-.35h-.49l-.1.3Zm1.63-20,.15.1.1-.2-.15-.1Zm.54,14.34v-.3h-.49l.2.25Zm-.43,1.6.2.15-.1.15v.35h.25l.4-.3-.25-.2v-.25l.1-1h-.3l-.1.89Zm.1-13.75v.2h.3l-.1-.3Zm0-3.56.1.64.54.15.1-.35-.25-.15-.1-.3h.45l-.2-.54-.35-.45-.1.25v.79Zm0,14.94h.3l.15-.15v-.3h-.3l-.15.15Zm.2,4.85.1.4.4-.1.1-.25-.35-.3Zm.4-21.36v-1h-.3v.89Zm-.3,8.06.2.1.1-.2-.2-.1Zm0,2.18h.3l-.3-.2Zm0,10.24.3.1-.1-.3Zm.2-6.33-.1.3.2-.2Zm.4-11v-.4l-.2-.25-.1.25.1.25Zm1.19,2.08.25-.1v-.3l-.2-.15v.25Zm.1,13.7h.3v-.25l-.15-.25-.25.1.1.2Zm0-17.7.25-.15v-.4l.25-.1.1-.25-.3-.1-.15.25v.35Zm0,18.54.54.35-.1-.64-.3.1Zm.74-23V33l-.15-.25-.44-.15.1.25.25.25Zm-.2,20.23.1.2v-.35l-.2-.25-.3-.15v.35l.25.15Zm-.35-5.74h.15l-.1-.25Zm0,10.88h.3v-.3h-.2Zm.2-.84.2-.2.1-.4-.2-.2-.25.54Zm-.1-26.9.49.25V30.6l-.2-.15-.1.3Zm0,14.39h.35v-.3l-.25-.2v.3Zm.1-9.94h.3l.25-.4h-.3l-.2.15Zm0,2.67h.3l-.1-.25Zm0,.69.2.15v.25l.25-.15-.13-.31-.25-.2Zm0,12.26h.3v-.25l-.15-.15Zm.1-10.68.2-.15-.2-.15Zm0,1.73h.3l-.08-.37-.2-.1Zm.35-9.89-.13-.48v.35ZM171,34.06h.15v-.2H171Zm.35,20.52v-.35h-.25l.1.2ZM173.92,43l-.4.3V44l-.79,1.53-.1.54v.35l-.3.1-.15.15.15.4-.25,1-.45.35-.15.64.2,1.19.54.25h2.08l.59.2.54-.2.79.2,1.88-.3.54-.74.25-.15-.54-.84-.1-.64-.25-.15-.3-.94.2-.44-.4-.35V45.9l.1-.35-.35-.1-.3-.54.15-.3v-.89l-.59.2-.15-1.19.15-.3-.4-.4v-.4l-.35-.1-.4-.49-.25-.15-.69.89-.35.84Zm-1.29,14.89.2-.1-.2-.15Zm.25-22.16.49.25.1-.25-.1-.3-.2.2Zm0,19.88.2-.1.2-.25-.4-.3Zm.2-16.42.45.1-.35-.54.3-.64h-.4l-.15.2.1.59Zm-.1-5h.2V34H173Zm.4,1,.1-.49H173l.1.35Zm-.4,21,.2.54-.2.2.25.2v.59l.2.2.15-.54-.2-.15v-.94l-.2-.25Zm.3-23.24.45-.4-.1-.74h-.35l-.2.1.25.25v.54Zm-.2,1h.2v-.2h-.2Zm.54-2.92.1-.25-.1-.84h-.35l-.1-.1v.59l.3.45Zm-.44,22.45.35-.2-.35-.1Zm.44,5.09v-.3h-.25v.3ZM175,35.39l.3-.1v-.54l.2.2.2-.44-.3-.1-.4.69Zm.25,21.46.25-.15.2-.59-.1-.25-.25-.1-.2.84Zm0-25.77.35.45h.3v-.59l-.15-.25h-.3Zm0,1.38h.35l-.2-.25Zm.45,6.38-.2-.49-.2-.2.15.59Zm-.3,15.83.49-.1-.1-.25-.25-.15-.25.1ZM175.6,29h.2l-.1-.2-.2.1Zm-.1,23.54h.3l.15-.2-.15-.2-.2.2Zm.2-13.3h.2l-.1-.2-.2-.1Zm.3-1.45v-.3l-.2-.15-.1.25.1.15Zm0-4.65v-.35l-.25.2ZM177,43v-.25l-.3-.1V43Zm.35-10.29v-.25l-.15-.15v.25Zm-.1.74.59.54.25.1v-.3l-.35-.45h-.25Zm.45,5.29V39h.25v-.25l-.15-.3-.45-.1v.3Zm.1-.94-.2-.25v.2Zm.3,19.2-.15-.4.15-.89-.1-.2-.2.1v.3l-.2.54.1.45Zm-.4-15.08.1-.2-.1-.15Zm.4,12.81.1-.69V53.1l-.3-.74-.2-.2v1.78l.2.54Zm-.2-11.52.3-.25H178Zm1.83-3.56.2.3v.35l-.35.2.1.35.74.3-.54.35-.1.84.54.25-.2.25-.1.4-.44.1v1.14l.15.15.15-.3.1.64-.44.1v.35H180l.64.64h.3l-.2-.1-.1-.2.2.1.1-.45-.25-.1-.1-.59.25-.49h-.3l-.15-.35.35-.1V42.46l-.15-.49-.15-.2.35.1.2-.54-.15-.54-.3-.4.15-.2V39.4l.15-.3h-.25l-.49.25-.2.25Zm-.1,7.42.35.54v.3h.25l-.1-.35v-.25l.15-.15-.49-.3Zm.84,6.28.1.44-.2-.15v.54L180,54l-.1.54.1.2v-.3h.64l.25-.45V53.3h-.25Zm-.54-1.19.3.1.15-.35h-.3Zm.25,3.86.25-.1.15.15-.15.2v.3l.57.25v-.25l-.25-.2-.15-.3.4-.44-.2-.15h-.64v.3Zm0-20,.2-.15-.1-.2Zm0,13h.2v-.2l-.2-.1Zm.2-11.57.2-.15.1-.25-.1-.3-.2-.15-.1.59Zm-.1,1.19h.3v-.3h-.35Zm.1-3.12h.2v-.15h-.2ZM180.73,47v-.2h-.25Zm-.25,3.46.2.2.35.1v-.35l.15-.49h-.35l-.25.2Zm0,1.48.3.49.25.15h.25l-.3-.79-.25-.2-.15.2Zm0,3.26.25-.1v-.32h-.25Zm.1-20.92h.25l-.25-.15Zm.35,15.18v-.3l-.25-.1v.3Zm1.63-2.12.45-.15v.35l-.45.25v1.29l-.15.84.3.25-.35.49v1l.15-.2-.1.35-.25.2.35.84V52.5l-.15-.2.2-.15V51.9l.2-.15.1.25h.35l-.25-.59.25-.25.1-.3V49.79l.1-.3-.4-.4.4-.45-.15-1.14.15-.79-.15-.25-.25-.1-.25.1-.2.59Zm-.2,6v.35l.1.2.3-.1.25.2.1.3.4-.4v-.35l-.84-.2Zm.49-8.75.15.64-.25.1-.25.3v.15l.25.15.1-.25.25-.2v.3l.2.1.1-.25v-.89l-.15-.35Zm-.3-3.12.3-.15h.25l.3-.64-.64.59Zm0,11.33.2.35h.3l.45-.15v-.35l-.2-.4H183v.25l-.2.15ZM183,40.14v-.35h-.3l.1.25Zm-.35,4h.25l.1.2.2-.54h-.35Zm.44,13.3v-.2h-.25Zm-.15-1.53.2-.1v-.25l-.2-.2Zm.25-1.29-.1.25.25-.15-.15-.25H183Zm-.1,1.73.2-.15-.2-.15Zm.64-10.58h.2v-.2h-.2Zm.64-6.92h.3l-.1-.2-.2-.1Zm.35,11.67v-.35l-.15-.2v.4Zm0,.64.15,1.19.4,1H185l-.25-.15v.64l-.1.2.25.1.15.25.25.1-.15-.25v-.49l.64-.15V52.31l-.3-.15v-.4l.35-.54-.74-.15Zm.45-3.86-.1.3.2.25h.15l.2-2.18-.64-.3V46l.2,1ZM185,45.19l.25-.15v-.3h-.4Zm0,3.17.2.4-.3.49v.3l.4,1.19h.59L185.64,49l-.35-.74Zm.35-5.39-.35-.54v.25l.1.25Zm0,14.64.2-.1-.1-.35H185l.1.3Zm-.13-1.82h.25v-.3l-.2-.15-.15.2Zm.35-12.22-.1-.3h-.15l.1.15ZM187,54.29l.35.4.1-.4Zm.25-8.56.4-.1-.3-.2Zm0,6.28.25-.1.15.49.44-.1V52l-.25-.44h-.3l-.2.15Zm.2.84h.3l-.1-.3Zm.2,7.32-.2-.3v.3Zm-.1-6.78.2.25.25.1v-.3l-.25-.2Zm.25,8h.2v-.15h-.2Zm1.93-7-.1-.3h-.35v.3l.15.15Zm.3,2.82h.15v-.15H190Zm.25,7.71h.2l-.2-.3Zm1.93-2.23h.3l.15-.15v-.3l-.1-.2-.3.35Zm.2,1.63h.25l.1-.2v-.33l-.45.3Zm.15-4.65v.2l.2-.1-.1-.2ZM194,63.73l.2-.15-.2-.15Zm.1.54h.44l-.1-.3-.15.15Z"/><path class="cls-1" d="M245.21,53.49l.1.54-.1.3.25.49V56.7l-.25.1.2,1.14v.89l-.25.45.2.25v.25l-.1.59v.54l.15.2-.2.54v1.14l-.15.3.15.2v.59l-.15.64-.35.35h-.25l-.2.54-.69.1-2.42-.1-.84.2-.54-.15-1,.15-1.29-.15-.94-.54-.79-.79h-.54l-.2-.64-.59-.69-.2-.59-.54-.3-.74-.94-.3-.59-.49-.35-1-1.48-.44-.4-.3-.15-.1-.54-.79-.84-.64-.89-.54-.4-.59-1L227.3,54l-.15-.54-.54-.49-.2-.64H226l-.1-.3-.74-.79-.1-.64-.25-.25h-.25l-.3-.15v-.35l-.3-.44.15-.2-.2-.1h-.35v-.3l-.3-.35.2-.15.1-.3h-.35l-.2.3-.79-.79-.59-.74v-.25l.25-.15-.4-.59-.45.35-.35-.74-.3-.1v.54l-.54.3-.3.54.2.45-.15.3v1l-.15.64.25.74-.1,1,.1.3-.15.69.1.59v.54l-.45-.15v.4l.4.49.15,3.71-.15,1.14-.15.49-.4.69.2.2.35.1v.94l-.1.25-.25.15.44.3-.3,1.29-.25.15.2.15h.35l.1.35-.25.79v.35l-1.38.74-1,.15-.2-.3h-.59l-.45-.3-.4.54-4.75-.1-1.19-.89v-.35l-.1-.59.25-.25-.15-.25-.1-.59-.15-.25.15-.3.1-.54.15-.25-.3-.3v-5l-.1-1.09.35-.2-.2-.54.25-1-.2-.15-.15-.54V52l.15-.49.4.3h.25l-.1-.3-.44-.35.3-.45-.25-.2-.1-.3v-.52l-.25-.54.2-.64H210v-.25l-.15-.49-.54.2V45.79l.4-.1-.3-.59v-.51l.2-.3-.15-.59-.15-.25.4-.35-.15-.2-.25-.1.3-.54.15-.64.4-.44L210,41h-.49l-.3-.74.59-.69-.2-.25-.2-.79h.45l-.2-.2v-.84l-.25-.2.56-.53v-.54l-.3-.45.15-.3.45-.44L210,35v-.25l.2-.3-.2-.1h-.3l.2-2.35v-.3h.25l.15.15v-.3l-.45-.64.15-2.32.2-1.14.4-.74h.59l.35-.3h.3v.1l.3.1.35-.1h0l1.63.15v.54l.25-.1.1-.25-.15-.1.25-.1.5.2.25-.15.1-.3h.64l.54.15.2.15.59-.2h.89l.25.15v.45l.89.4.1.3.3.4.64.54.15.59.1-.2.74,1.19.5.35,2,2.55-.1.4.45.3v.35l1,.64,1.7,2.52,1,.64.35.49.4.89.54.2.25.54.94,1-.2.45h.45l.1.64h.2l.54.3-.3.54h.54l.2.15-.1.25-.45.25h.64l.1.59.54-.2.15.3.2.15-.1.3-.15.15.15.2h.49v.54l.15.3.84-.2.3.54.45-.44h.59l.35-.49v-.35l-.45.1v.53l-.1-.1-.1-.69H236v-.25l-.25-.54V44l.15-.25-.49-.44v-.64l.3-.89v-.2l-.2-.2.3-1-.2-.2-.1-.35h.3l.35-.35-.45-.3.25-.1v-.35l-.15-.3-.3-.15V37.12l.1-.79.2-.25-.15-.3-.25-.2.2-1-.2-2.42.25-1.29v-.59l-.25-.49.2-1.78.25-.84.4-.4.64-.15.2.25v.4l.89-.44.15-.3.59.1h2.87l.89.15.59-.15,1.29.1.54.25.44.35-.2.4.25.1.15.2v.44l-.1,1.34.1,1.19-.2.4.25,1.68v.59l-.2.54.2.2v.25l-.25,1.09L245.5,37l-.15.25.2.44-.25,1,.25.4v2.37l-.2.79.15,1.14-.1,2.27v1.24l.2.94-.35.3.2,1.78v1l-.25.54.2.3V52l-.25.2.25.1.1.25v.69Zm-33.73-17.7v-.25l.3-.1V34.9l-.3.1-.1.64Zm0,10,.45.3v-.54l-.1-.15h-.3v.25Zm0-11.87v.35l.15.2H212v-.4l-.1-.3-.15.1Zm.2,5.93v-.59l-.15-.15v.54Zm0-8.65.2-.1v-.21l-.2-.1Zm0,17.16.3-.2h-.2Zm0,11.67h.2v-.15h-.2Zm.45-18.89.1-.25v-.3l-.3-.45-.1.3.2.49Zm-.35,5.29h.2v-.25h-.15Zm.1,8.41.25-.2v-.25l-.15-.2-.2.3Zm-.1,4.4.25-.1v-.3l-.2.15ZM212,47.79l.1-.44-.25-.1v.3Zm.49,1.38h.15V49h-.15Zm1-14.44.35.1.1-.3h-.25Zm.1,23.19.3-.15.15-.3h-.3l-.1.2Zm.1-16.62L214,41l.1-.64.3-.15.2-.25v-.25l-.3.1-.25-.1-.4,1.09v.55Zm0-9.69.5.3.49.1v-.3h-.2l-.2.15V30.18l-.15-.25-.15.3v1.24Zm.15,1.38.2-.44-.25-.1-.1.3Zm.1,3.76v-.4h-.2v.3Zm-.15,1.43-.1.74.31-.13.15-.3.1-.64.3-.15.15-.25-.3.1-.25-.1v.64Zm.21,1.61v-.35l-.15-.25-.1.35Zm0,22.35.1-.64-.2-.2-.15.25V62Zm0-28.49.1-.3-.25-.15v.3Zm-.1,9.69.15-.15h.35l-.15-.25-.25-.15-.15.25Zm0,5.54.54.1v-.35H214Zm.15,1.19.3-.54-.3.1-.15.25ZM213.9,60.5v.29l.3-.1v-.35Zm.35-18.5v-.4h-.3v.3Zm-.3,5.19v.3h.25v-.2l-.15-.25Zm0,4.4.3.15v-.49l-.15-.15v.25Zm.1-16.37.54.1V35l-.4-.25V35Zm.3,10.88v-.44H214l.1.3Zm-.3,12.73h.2v-.15h-.2ZM215.88,61l.15.59V62l.3.35h.25V62l.2-.15-.35-.49-.15-.54Zm.1-22.45.4.1-.15.35v.87l.25-.15.1-.25-.1-.84v-.1h0l-.4-.25Zm.1-3.56.15-.2.54-.1-.25-.59-.45-.3v.35l.1.49Zm.1,6.92.1-.15h.25l-.2-.59-.25-.15v.64Zm-.1-5.39h.45l-.1-.25-.2-.1Zm0,.54.15.59.4.35v-.59l-.3-.54Zm.25,5.49v-.2l-.2-.15-.1.25ZM216.18,60h.3l.2-.15.1-.54h-.3l-.25.15-.1.3Zm.45-30.36-.4-.1.15.25ZM216.33,53h.2v-.17h-.2Zm0-21.71h.2l.1-.1-.2-.2Zm0,29.67h.1v-.2Zm2.27-22.75-.25-.1v.25h.3l-.1-.4Zm.3-3.46-.3-.1-.2.54v.49l.15.25v-.4l.45-.7v-.35Zm-.1-3.46v-.4l.15-.3v-.3h-.3l-.25.49.1.3Zm-.35,6.13.25.25.1-.35Zm0,13,.2-.15.1-.35h-.3Zm.3.44v.94h-.25l.1.54.35-.1.1-.2v-.4l.15-.2.15-.59V50.6l-.1.1h-.15Zm-.1-14.34h.2l-.1-.2-.2.1Zm0,7.31.3.54v-.69l-.1-.2-.25-.1Zm.54-14.34V29.2l-.2-.1v.25ZM221,33.3v-.54l-.25-.15v.54Zm.2,3.31h-.35l.1.25Zm-.35,5.64.15.1.1-.15-.2-.1Zm0-.69h.2l.1-.2-.3-.1Zm.1-1.14.2-.15.2.1-.1-.3-.3.15Zm.1-1.24.45.15v-.5h-.3Zm.35,6.38.2.1-.2-.3Zm1.83-2.27-.25-.1.1.69.25.49v-.64l-.15-.64Zm0-4.4-.15.1h.35l-.2-.45Zm.1,3.36.3-1.24v-.25l-.25-.25-.2.59v1Zm0-2.08.25-.1v-.3l-.1-.25-.1.2-.2-.2v.4Zm.1,6.77v-.25l-.2-.15v.29Zm2.13-1.58-.25.1-.15.44h.35l.1.54.2.25.1-.25-.15-.2v-.3h.2l.2-.2-.3-.69.25-.15.1-.59-.25.15-.1.3-.1-.15-.15.15-.1-.45.25-.2v-.64l-.44-.1.2,1.63Zm-.1-4-.2-.35v.25Zm-.2,6.38.2-.1v-.25l-.15.1Zm.3,1.19v-.3l-.2-.15v.25Zm.15-8.21.1-.2v-.3l-.35-.15v.54Zm-.15,6.82.59.3v-.4l-.15-.25-.3-.1v.25Zm.15-4.65h.2l.2-.15v-.49l-.4-.69ZM228,45.76l-.1.2-.45.4h-.25l.44,1.43v.79l.2.15L228,48V46.81l-.1-.59.3-.1.15-.25.1-.69-.4.1-.25-.1v.3Zm.6,5.24-.2-.59-.79-.79.1.54.69.64Zm-.6-9v-.84l-.25.1v.3l.1.3Zm-.1,2v-.35l-.15-.25-.1.35Zm-.2.74.35.2.1-.64-.1-.3-.25.49Zm.54-1.29.2-.15V43l-.3-.35v-.3l-.15-.1-.1.35.2.49Zm-.25,8.2h.15V51.5H228Zm.54-2.08.15-.2-.25-.64-.1.25h-.2l.1.35h.25Zm-.2.35h.2v-.14h-.2Zm1.09-2.08h.2v-.2h-.2Zm.35-2.18H230l.15.25-.2.3.49.44h.35V46.3l-.25-.69.15-.25h-.54l-.25.1ZM230,48h.3l.2.15.3.45.2.15V47.36l-.1.3h-.25l-.2-.2v-.54h-.3l-.1.84Zm0,2.37.25.1.35.4.25.1V50l-.74.2-.1-.3Zm.3-1,.35.2.25-.25.1-.3h-.3l-.25.1Zm.1,5.49.2-.15-.2-.15Zm.15-12.17h.2v-.15h-.2Zm.45,9.5v-.35l-.15-.2h-.35l.2.49Zm-.35,1.38.25-.1.1-.25h-.3Zm1.48-.89.69.64.2-.57-.1-.2-.15.1h-.3v-.4l-.2-.15-.1.25Zm0-4.06.25.1.15.2-.3.44.25,1.68-.15.59h.25l.45-.4-.25-.84-.15.59.15-1.83.2-.79-.2-.15V48l.15-.54h-.25l-.2.1-.25.84Zm.1,5.24v.3l.25.15h.25V54l-.25-.15Zm.3-7.32h.25v-.2l-.2-.1Zm.25.45v-.24h-.25Zm0,8.06.2-.15-.2-.15Zm1.58-4.1.2-.1v-.3l-.2.15Zm.54-3v.64l-.25.44.64-.1v-.4l.15-.25.25-.1v-.35l-.1-.25-.2-.15-.15.4Zm.2,7.71-.2.74.25.1.15-.79-.15-.59-.54-.25.1.35.2.2Zm.25-.59V54.6l.44-.69-.3-.15-.4-.44h-.4v.3l.1.59.45.79Zm-.54-5.24.2-.1v-.36h-.3v.3Zm-.1,2.27.15.3h.3l.25-.2V52l-.3.1Zm.3,10.14.15-.4-.14-.17v.57Zm0-2.52.25-.2-.25-.2Zm.15-2,.2-.2-.2-.15Zm.2-4.55.35-.2-.35-.25Zm1.73-7.52.2.4H237l-.2.1.2.15.45,1.09-.2.25h-.3l.15.64.25.44.35-.54.1-.35-.2-.2.2-.64v-.32l-.25-.15.35-1.48-.64.1-.35-.1.1.64Zm-.25,6.43.69.54.2-.49-.2-.54-.35-.44-.35.64Zm.54-7.52v-.35l-.1-.25H237v.35l.1.25Zm-.3-11.77h.25l.15-.2-.4-.1Zm0,7.76.3-.1.15-.2h-.35Zm.1,13.9.3-.49h-.3l-.1.25Zm-.1,1.09h.45v-.3l-.15-.2h-.25Zm0,.35v.64l.15.3.25.15.15-.15-.25-.54.25-.2v-.3l-.25-.15V56Zm.1-25.27.25-.1v-.3h-.3Zm.35,7.91v-.2h-.3l.1.3Zm0,3.66.1-.3-.3-.15-.1.35.1,1.14.15-.15v-.64Zm-.3,8.16h.3l.15-.15-.1-.25-.25-.15Zm0,8.46.3.1v-.35h-.3Zm.2-15.43.35.1-.2-.35ZM239,39.79h.25v-.1l-.1.1-.1-.2Zm.2,11.82h.25l-.1.49.2-.2.1-.35.3-.1v-.94l-.64.4h-.25v.3Zm.15-9.89.4-.1-.1-.25-.3-.1Zm0,2.77.15.15h.25v-.35l-.15-.2Zm0,2.08.3.15h.3l-.49-.45Zm0,2.92.4.1.15-.54.2-.3-.25-.35h-.5l.15.54v.2Zm.3-6.38.1-.1v-.54l-.15-.2-.15.2v.59Zm-.2,17.51.49.2v-.3l-.1-.3-.25-.15-.2.2Zm.3-7.22v-.3l-.15-.15v.3Zm.2-3-.15-.3-.25-.2v.3l.2.2Zm-.3,5.84-.1.69h.35l.25-.2.25-.54L240,56v.35Zm0,6.38h.3l-.3-.2Zm.3,2.18-.3.1.15.15Zm-.2-6.58.2-.1v-.25l-.2-.1Zm.1-13.06v.2l.2-.1-.1-.2Zm0,10.34.64-.2-.1-.25.1-.54h-.35l-.15.15-.15.49Zm.35-2.13-.25-.15v.3Zm.3,9.5h-.3l.1.2Zm1-10.09.1.54.54-.1.1.3.15.15v-.54l-.2-.45v-.4h-.3l-.2-.79-.1,1Zm.1,4.1.1-.25-.2-.15Zm.1-9.45.45.1v.4l.1.25.35-.79-.4-.4-.5-.15v.59Zm0,3.51v.25l.15.2.3-.54h-.25Zm0-22.55.1.25h.25v-.3Zm0,21.81.2.1.1-.2-.2-.1Zm.1,4.3.5-.2-.1-.35-.2-.16h-.3v.3l.1.2Zm-.1,6.18.15.35.49.2v-.54l-.35-.1Zm.4-11.13.25-.3-.2-.15v-.59l-.2-.15-.15.25V49l.15.35ZM242,37.79l.2-.2.1.2v-.3l-.1-.79.1-.3h-.25l-.3,1.14Zm-.2,3.46h.3L242,41Zm0,3.26.54-.25-.25-.1-.3-.45.1.54Zm0,1.14.3.15-.3.1v.54l.74.1.1-.54-.3-.44-.35-.1-.1-.2Zm0,11,.1.45h.25l.25-.2.15-.49-.1-.25-.25-.1-.15.59Zm.3,1.53-.3-.1.1.2Zm0-21.91.25-.1v-.3l-.1-.25-.3.4Zm.35,8.75v-.35l-.2-.25v.4Zm0,7.52.3-.1-.1-.25-.3-.1v.25ZM244.28,28l.1-.25-.3-.1Zm.94,28.14-.1-.54-.2-.1V56Z"/><path class="cls-1" d="M251.88,36.63v-.35l.25-.54.74-.89.15-.59h.35l.54-.64.3-.1V33l.3-.1.4-.35.3-.49.45-.25h.3v-.65l.54-.3,1.33-1,.84-.44V29.1l.25-.2.3.15v.54l.2.25.2-.25V29l-.15-.25.45-.4.3-.15h.3l.25.15.1-.15v-.3l2.28-.84,1.33-.59,1-.1,2.18-.54.45.2.54-.1H269l.2.2.54-.3,1.29.1.54-.15,1.14.25.5.2.4.35.44-.25.54.15h.59l1.14.25.94.49h.4l.54.25.15.3h.3l.64.35.54.1.25.35,1.29.64.1.25,1.09.64.35.49.59.2.4.4.2.59.54.15v.54H285l.3.15.54.69-.1.3.1.54.4-.3.94,1.33v.3l.45.2.2.2v.35l.45.64-.35.54.89.45.15.69.35.49-.1.49.25.45.3,1.29L290.3,43l-.1.35.3.54v4.25l-.5,2.52v.64l-.45,1.09-.74,1.19.1.3-.15.59-.35.49-.2.54-.35.25-.35,1-.64.59v.3L285.54,59l-.2.49-1.73,1.43-.74.45-.25.64h-.35l-.4.4-.49.25H281l-2.32,1.58-.3-.1H278l-.25.2-.1.3-1.73.54-.44.3-.54-.2-1,.49h-.3l-.3-.15-.25.25-.89.1-.3.15-.4-.1-.25-.2-.54.4-1.24-.15H268.3l-1.68-.3-.25-.15h-.3l-.15.15-2-.49-.4-.3h-.35l-.54-.15-.94-.59-.35-.1h-.4l-.4-.44-2.72-1.38.2-.45h-.54l-.48-.1-.69-.59v-.3h.15l-.94-.64.2-.54h-.64v-.2h-.3l.1-1-.35.15-.15.54-.79-.89-.84-1.3.15-.3v-.25l-.35-.74-.35.3-.45-.44-.2-.64-.74-.94.1-.45-.25-.49v-.84l.15-.2-.35-.49-.7-1.76-.45-.74.54.1-.1-.35-.45-.44-.1-1.73.45-.3-.2-.15V46l.45-.3-.54-.2-.15-.54.15-.54.25-.45-.15-.74.15-1,.3.1v-.94l.44-.25-.15-.25-.3-.15.84-1.33v-.6l.15-.59.84-1.48.5.2h.25l.25-.2-.25-.1-.2-.25v.25h-.4Zm-2.32,11.62.25-.25h-.15ZM250.1,50h.25l.15-.25h-.25Zm1.14,3.12-.4.1h.25Zm.35.54.1-.3-.3.1Zm.2-10.78.15.3v.94l.4.49.15-.64.3-.2-.49-.94v-.3l.25-.15.1-.35-.15-.54V40.23l-.15-.49-.4.4v.64l.15,1.63-.1.25Zm.45,3.21.15-.25-.15-.54L252,45l-.25-.1v.69l.15.25Zm-.2.54-.1.35.2,1.43v.25l-.15.15.3.15.2.3-.45.35-.1.3.06.9-.25.15.2.2v.44l.1.1v-.3l.44.1.1.79.2.15.2-1.19h-.3l-.2-.15.15-.3.25.1v-.35h-.54V50l.2-.94h.3V48.7l-.25-1.09.2-.64h-.25v-.35l-.25-.2Zm.4,7.57V54l-.1-.3-.25-.1-.1.3.1.3Zm-.3.44.1.25v.49l.1.2h.35l-.1-.3.3-.69-.5-.1Zm.64-.54.2.1.2-.1v-.54l-.4.25Zm.3-1.09v-.3l-.2-.3v.49Zm.15-18.2.1-.25-.2-.1ZM255,54.73l-.15-.25-.2-.1.15-.2-.25-.64.25-.44.15-.64-.2-.54-.59.35h-.35l.1.64.35-.15.2-.2-.35,1.78.15.64-.15.4.54.25.25-.15v-.35l-.4-.2.3-.4ZM254,49l.4-.15.49-1.24-.3-.1-.35.3-.24,1Zm.2,2,.1-.1-.2-.15Zm.54-9-.4.35v.2l.15.49v1l-.25.1.25.15v.35l-.1.25h-.2l.3,1.19.25.15.15-.1-.1-.35.15-.25v-.44l-.2-.4-.15-.69h.35l.1-.3-.15-.54-.2-.15.2-1.19-.1-.3h-.4v.35Zm-.54,7.32v.35l.35.4-.15.25v.4l.4-.1V51l-.4.4-.1.25.1.2.25.1.54-.94-.2-.2v-.4l.1-.3-.35-.3v-.3l.3-.4-.15-.2-.1.3-.2.15Zm.45,7.86V56.8l-.1-.2-.25-.1-.1.3.15.25Zm-.35-23,.25.15.1-.35h-.25Zm0,4.45.1.35.35.1v-.64h-.3Zm.15,1.48-.15.59v.49l.2.15.15-.49v-1.3l-.2-.1-.15.25Zm-.1,6.82.3.1v-.54l-.3.1.1.15Zm.1,11.08.2-.59-.25.1v.3Zm.2-19.93.1-.35v-.64h-.3v.84Zm.15,18.72v-.1l.1.25.15-.2V56.5l-.25-.2-.1.3Zm1.73-25.57-.2-.1v.2ZM256.33,52h.2v-.4h-.2Zm.2-11.08.25.2.1-.25-.1-.2Zm.64.54-.49-.1v.79l-.15.25v.35l.15.45-.15.2.2.1v.25l-.1.59.1.25.15.1.15,1.24.15.54.2.15v-.25l-.15-.64-.15-.2.15-.2.15-.64-.15-.54-.15-.2.25-.59V43H257v-.25l.35-.25-.15-.25V41l-.35.1.15.1ZM256.53,57l.2.1-.1.2v.35l.2.1V58l.45-.3v-.35H257l-.25-.49Zm.45-.54.25-.1.2-.44-.35-1-.45-.1v.25l.35,1.09Zm-.3-22.25h.4V34l-.25-.1Zm0,13.6H257l.2.15-.45.69v.94l.2.2.15-.15V49l.1-.2.2.45V48l-.3-.79h-.49Zm.3,6.63-.1-.44-.2.25Zm-.2-17.16v.4h.35l.2-.1-.1-.1v-.3ZM257,50h-.2l.15.2Zm-.1-18.23h.2v-.2h-.2Zm.1,6.73h.35l-.1-.35-.15.25-.1-.25Zm0,13.8h.25l.1-.2-.1-.2h-.15l-.1-.2Zm.45,1.73h.2l-.1-.2-.2.1Zm.1-7V46.7h-.1V47Zm1.29-6h.25v-.26l-.15-.1Zm.35,16.42V57l-.19-.1-.15.25v.2Zm-.25-5h.2l.15.2-.15.2v.3h.3v-.94l.1-.25h-.25l-.2-.1L259,52Zm20.62-2.27.1-.64.54-1-.3-.35.4-.84-.15-.25v-.4l.1-.25-.15-2V44.1l-.3-.54-.25-1.29-.54-1L277.43,39l-.49-.35-.3-.49-.35-.1-.4-.4-.54-.25L275,37l-1.14-.35-1-.45-.54-.15h-.69v-.2l-.2-.1h-.35l-.2.15h-.3l-.25-.25-.25-.1h-.5l-.84.25h-.54l-.3-.2-.15.25-.44.3h-.25l-.25-.15-.35.35h-.35l-1.48.79h-.35v-.3l-.45-.3-.1.64-.25.59-.35.35-.49.1-.15.54-.4.49-.54.35h-.35l-.3-.1.1.25.2.15v.35l-.3-.1v.25l.15.15-.45.69-.45.3v.59l-.2.54-.45.69-.15-.3v-.3l-.2-.3-.25.74v.35h.49l.2.2-.2.2h-.25l-.2.2.25.2.15.35-.4.69-.1.54v.94h.3l.2.15v.3l-.3-.15-.1.15.15.25h.2l.2.25-.15.2v.3l.25.1.15.2.15.59-.4.35.54.3.49.69V51l1.38,1.83,1.1,1.29h.4l.25.15.4.49h.3l1.68,1h.45l1.68.54h.59l.5-.15.49.25.15.25.4-.35.54-.15.25.1.15.3.3-.15.15-.2.25-.1h.35l.1-.25.54-.2.79.2V55.5l.35-.3h.54v-.3l.4-.4.79-.3v.3l.2.15.15-.2-.3-.35.89-.79.94-1.14.3-.1.4-.45.3-.54.45-.4-.2-.15V50ZM259,39.84l.49-.2-.1-.64-.3.4v-.84h.3l-.15-.59v-.49H259l-.1.59.1,1.43Zm.2,16H259v.3h.25Zm0,5v-.35l.1-.45v-.25l-.2.54v.35Zm.2,1.73v-.3h-.3v.25Zm.15-8.6-.35-.35v.3l.15.15Zm-.25,2.82h.25l.1-.25-.25-.1Zm.35-4.7.2-.25h-.3Zm.2-23.1.2-.1-.2-.15Zm1.83,4.75-.15-.2h-.3l.15.3Zm-.2,28-.25-.25v.2Zm.1-24.18v-.4l-.25.1v.2Zm-.2-2.67.4.1v-.35h-.25Zm.1,22h.25l.15-.15h-.3Zm.4-2.18.25-.15.1-.3H262l-.1.1v.15Zm1.53,7.76.35.1v-.4h-.2Zm.64-27.2-.2-.35v-.3h-.25v.3l.1.3.15.15Zm.35-8.41-.35-.1.15.25Zm1.68,1.73v-.25l-.25-.15v.25Zm0,3.46.2-.35-.25.1Zm.2,33v-.2L266,64.7V65Zm1.87-33.86.15.2.2-.15v-.15Zm0,31.5h.35v-.3l-.25-.15Zm.35-29.52.1-.44-.3.2Zm-.15-4h.25l.1-.25h-.35Zm2.47,29.57v-.49h-.25v.3Zm2.38-27V31.1l-.15-.2-.2.49v.2Zm0-1.83v-.3l.1-.84-.3.15v.3l.1.2-.1.15v.3Zm.15,32.49.35-.15.1-.3-.2-.1v-.3l-.15-.15-.1.64Zm.3,1.83.15-.4h-.25l-.1.25Zm.3-4.49v-.3l-.2-.25-.15.3.1.3Zm-.35-26.21.2.1.15-.15-.2-.1Zm.1,24h.3l.1-.2h-.25Zm0,1h.3v-.19l-.2-.1Zm2.42.4v-.25l-.2-.15-.1.25ZM278,57.85l.15-.2.25-.1V57.2h-.3l-.2.44Zm0-22h.2l.1-.3H278Zm.1,17.06.25.1.2-.1v-.3h-.3Zm.2,1.09.25.1v-.31l-.1-.25h-.25l-.1.3Zm-.2,5.19h.3l-.3-.15Zm2.27,0v.3l.2.15.3-.44-.1-.2-.1.2Zm.3-4.06.25-.94-.15.35h-.3V55Zm-.1,1.19-.1-.25v.35Zm-.1.2v.3h.4l.2-.4-.4.1Zm.4,5.84-.1-.25h-.3v.25Zm-.1-6.68v-.25l-.15-.1v.25Zm0,2.37.1-.59-.3-.1v.54Zm2.18.1h.2l-.15-.59-.25-.15V58Zm-.1-7.12h.35l.3-.4-.2-.2-.45-.15Zm.15,1.76.64.4.1-.35-.4-.79h.2l.1-.2h-.25l.15-.15-.2-.15v-.3H283l-.1.25.1,1.14Zm0,.74v.26l.2-.15-.1-.15Zm.44,3.66.15-.4-.1-.69-.2-.1-.15.84.1.25Zm-.1-1.83.2-.15-.2-.15Zm1.83-13.15V42l-.2-.1v.25Zm0,7.57.25.2v-.84L285,49l.2.69Zm-.1,3.12.15.45v.3l.25-.2.1-.25v-.49h-.3Zm.1-12.07.25-.15.1-.3h-.3v.25Zm0,14.79.35-.1.2-.25-.1-.3v-.35l-.15-.2-.3.59v.61Zm.35-1.53v-.3h-.3V54Zm0-9.79v-.2h-.15Zm-.1,4.2h.25v-.25l-.15-.15v.25Zm0,8.51h.3v-.3h-.35Zm.45-9.3-.1-.54-.25-.1v.35l.1.25Zm-.25-7.86h.15v-.2h-.15Zm1.83,3.86.3-.15v-.35l-.3.15Zm0,7.81.2-.15-.1-.2Z"/><path class="cls-1" d="M314.69,64.79h-.4l-.54.59-.49-.25-.35-.4-.25.54-.54.2-1.63-.2-.64.3h-.25l-1.14-.4h-.64l.3.1-.49.1H307l-.59.1-.3.15-.3-.1-.25-.4-.3.2-1.19-.74-.2-.64-.25-.15v-.6l-.54-1-.2-.2V61.3l-.2-.15.1-.44-.59-.94-.15-.54v-.54l-.15-.49-.15-.2-.35-.1v-.35l.25-.25-.49-.15.3-.45-.2-.25-.54-.3-.2-.25v-.35l.35-.54-.1-.15-.54-.1.1-.35.15-.15v-.35l-.2.1-.1.2-.25-.2.15-.89-.45-.4.1-.54-.15-.1h-.25l-.25-.15v-.79l-.25-.2.49-.45-.15-.25-.25-.1-.25.15-.1-.44-.35-.49-1.14-2.52v-.35l.15-.2-.15-.15h-.3l-.1-.3V44.75l-.4-.35v-.3l-.64-1v-.31l-.2-.2-.25-.59-.4-.49v-.72l-.54-1-.89-2.27-.4-.74.2-.84-.4-.35-.25-.1-.15-.59-.55-.9v-.3h.2l.15.2h.3l-.1-.3-.4-.3V33h-.3l-.25-.2-.4-1-.59-1-.2-.94V29.5l-.4-.4-.25-.54-.15-.64.15-.94,1.14-.3h.84l.59.25.84-.25.3.1.2.25,1-.44h.94l.64.2.35-.3.59.25.15.15v.25l.35.1.2-.15.3-.49h.4l.64.1,1.14.69.2.79-.1.2.3.4.25.1.25,1.29.2.15.25.54.3,1.19.45.64.15.64.59,1.29-.15.15v.3l.35.49.45,1.19.45.79v.3L304,38l.79,1.48v.3l-.2.15.2.15.4.74.2.2.1.64.49,1v.69l-.2.2-.15.54.35.25h.3v.35l-.2.3.79.15.1.2v.3l-.49-.1-.15.2-.1.54,1.09.3.1.49.2.25-.2.69.15.2.49.25.15.2V49l-.2.2.15.3.49.35v.4l.1.3.69.49.79-.25.35.1.3-.2.15-.35h.25v-.45h-.45v-.3l-.15-.49.59-.94v-.25l-.1-.3.35-.64v-.35l.25-.15.3-.45.1-.69h.25l.25.1h.25v-.35h-.59v-.35l.15-.25.25-.15-.1-.54.89-1.48.2-.2-.15-.25.35-.84-.1-.35.59-.64.3-.1v-.54l-.15-.25.5-1.73.79-1.48v-.69l.54-1V33.3l.94-1.33v-.4l.1-.54.54-.89.54-1.73.2-.44.2-.2.64.1-.35-.54.15-.2.3-.1.3.1,1.14-.25H323l.89-.15,1.19.15h2.42l1.14.15,1,.4v.36l-.45.84.1.64-.35.49L328.49,31l-.49.79.1.45-.49.64-1,2.91-.54.94-.2.2v.3l-.54,1.53-.25.15-.2.3-.25,1.34-.94,1.78-.2.89-.3.54L323,44v.35l-.2.45-.35.4.1.3-.25.79-.25.1-.25-.1.3.64-.35.44-.5,1.14-.54.69.1.49-.64.25.3.44V51l-.25.49-.4.3v.64l-.25.15-.25.49-.15.64-.44.1v.4l-.15.25.25.25-.15.64-.59.15h-.25l-.35.45.25.1.25-.15h.25l-.25.54-.69.3.45.45-.2.49-.35.4-.2.54V59l-.2.25-.3.1v.35l.2.2v.4l-.64.64-.2.45-.25.1-.1.35-.35.1.3.49v.35h-.35l-.2-.15V63h.25L315,64.1l-.25.59Zm-24-35v-.3h-.3l.1.25Zm1.53,2.27v-.27H292Zm2,5.69h.2v-.2h-.2Zm.3,2.18.15-.2-.1-.2-.15.2Zm.54,1.63h.25v-.25H295Zm1.24-14.14h.64l-.2-.2h-.25Zm.63,11.37v-.3l-.2-.74-.4.1.15.35v.54l.3.2-.1-.35Zm-.4-9.35.25.1.2-.15-.25-.2Zm.1,4.85.45-.4-.1-.25-.44.35Zm-.1,2.92h.2v-.15h-.2Zm.2-6.28H297l-.25-.2Zm.25,9.4v-.2h-.2Zm0,2.18h.35l.1-.25h-.54Zm.15-6.38.1-.25-.2-.1Zm0-3.56h.2v-.35H297Zm1.48,1,.15.25h.3l-.15-.25Zm.1,10.24h.45l-.1-.35-.35-.1-.1.25Zm0-3.17.1.84v.25h.35l.2-.15.1-.25-.25-.15v-.59H299Zm0,7.57.25.2v.2l-.15.59h.59l.15-.2-.25-.2-.45-.69Zm.49-12.42-.4-.2.15.25Zm-.3,3.71.2-.35h-.3Zm.3,7.71.25-.2v-.4l.1-.25.1.25.1-.45-.64-.15-.15.64V47Zm.1-2.77.44.3-.1-.35h-.3v-.25Zm.59-.74v-.54l-.2-.1v.4Zm0,5.24.35-.3-.35-.1-.1.25Zm1.43,6v-.2l-.35-.4-.1.3.2.2ZM301,37.42l.25-.2-.1-.54v-.35l-.25-.2-.1.64.1.35ZM301.1,52v-.22l-.25.1Zm-.21,1.78H301v-.2h-.15Zm.35-4.9-.3,1.68.1.84.49.1.15-.84.2-.25-.54-.44.44-.3v-.4l-.15-.3.35-.49-.4-.35-.25-.1-.15.25v.25Zm-.2-9,.15.2.35.1V40l-.15-.54.1-.2-.35.4Zm.1,7.32.15-.15V46.8H301Zm.86.58.25-.25-.15-1.83-.54.35-.1-.15-.25.15v.3H302l-.1.2v.35l-.35.1v.54h.35Zm-.54-2.27.2-.15h.3l.15-.3h-.3l-.54-.15v.35Zm.64-1.34.25-.15v-.35l-.2-.25-.1.44Zm1.29,2.52.1-.25h.15l.3.15.15-.35V46l-.2-.15h-.25l-.4.25v.3Zm0,2.37-.25-.54.3,1.14v.59h-.15l-.1.79.2.15v.25l-.15.59v.2l.4-.1.1-.3V51.1l-.15-.25.45-.25-.15-.49v-.54l.25.2v-.3l-.2-.44.25-.25v-.25l-.59-.79.15-.25v-.35l-.1-.3h-.3l-.2,1,.1.94Zm0,4.3h.25l.2-.2-.1-.3-.2-.2-.3.45Zm0-9.5.2.45.3-.35.1-.3h-.4Zm0,11.23.3.2.2-.3-.4-.15Zm.5-9.74V45l-.2-.15v.3Zm0,11.32v-.25l-.2-.15v.25Zm-.2,1.24v.2l.2-.1-.1-.15Zm.35-.15.2-.15-.1-.25Zm1.48-8.8.4.35.15.25-.3.44-.25.15.25,1.93.54.2.2.2-.1-.3.1-.89-.25-.1v-1l.2-.25-.15-.64-.31-.52h-.2Zm.25,6.33.1.35-.15.64.44-.1-.1-.44-.2.3.2-.59-.1-.25Zm0,7,.4-.1v-.41h-.4Zm.2-15.08-.1.69.2.45.3.15-.1-.64.4-.45v-.25h-.35Zm-.1,13.15h.4V60l-.25-.1-.1.2Zm.4-16.72v.2l-.27-.06Zm-.1,13.8.3-.1.15-.25-.3-.1-.2.2Zm.25,1.09.1-.45h-.25v.25Zm1.29-6.28h.4l.25-.89v-.25l-.2-.15-.35,1Zm.3.64-.3.1.15.15Zm-.1,2,.35.2v-.54l.1-.2H308ZM308,59l.25.69-.15.49.1.3-.2.59v.54l.2.2.2-.2.15-.59v-.59l.15-.2v-.79l-.2-.2-.1-.69-.2-.2v.39Zm0-2.57h.3l.15-.3-.3.1Zm.1,6.18.2-.15-.15-.2Zm.64-6.48v-.3l-.25-.25-.2.2-.2-.2.35.4Zm-.1,2.37-.2-.25v.3Zm-.1-6.08h.2l-.1-.2Zm2,5.54v-.35l.15-.2v-.35l-.45-.3.1.3v.64Zm.1-4.35.3-.54h-.15v-.25l-.45.1.15.25v.3ZM310.5,55l.25-.25-.15-.54-.2-.2v.69Zm0,5.49.3-.15L311,60l-.45-.3-.1.49Zm-.1,1v.4l.3.15.1-.25-.1-.3-.2-.15Zm.15-5.19h.2V56h-.2Zm.3,7h-.2v.3h.25l.1.19v-.6l-.2-.2Zm.1-11h.2l.1-.25-.1-.2L311,52h-.25l.1.15Zm-.1,3.91h.25l.3-.35-.2-.25-.25.2Zm.35,2.27.2-.35-.25-.2-.1.3Zm1.14-4.65.1-.2-.1-.25-.15.25Zm-.1-7.67h.25l-.1-.25Zm.64,9.79.15-.4h-.45v.35Zm0-1.09.1-.2h.25l.1-1.19-.3-.1-.15,1-.15.1Zm.15,4.8v-.35l.2-.25-.2-.2v.3l-.2.3Zm0,.64v-.35h-.25v.3Zm-.15-7.81v.15l.15-.1-.1-.15Zm.45-.49v-.35l-.25-.2-.1.25.1.2ZM313,50.79l.25.1.15.2h.25l-.25-.64-.25.1Zm.49,11.47v-.45l-.25.1v.2Zm.25-7.37v-.35l-.25-.2v.35Zm.64,1.63.25-.1v-.25l-.2-.1Zm.64.74.54-.1-.1-1.09.1-.64h-.25l-.1-.15-.15,1.63Zm.1-5.88.3.15.15.25.2-.3-.1-.25v-.44h-.3v.35Zm.35-2.08.15-.59v-.25h-.3v.69Zm0,9.15v-.2l-.2-.1v.25Zm.2-10.88v-.25h.49l.2-.35-.84-.2-.1.25v.3Zm.64,1.09.1-.44-.4-.1v.35Zm-.2.94.1-.25V49l-.15-.2v.54Zm.94-4.5.15.1.1-.2-.2-.1Zm.15,9.25.25-.1.2.1v-.64l-.15-.49.2-.54-.2-.1h-.35V54Zm0-2.37h.4l.2-.2.15-.94L317.6,50l-.4-.25V52Zm.45-3.76V48l-.25-.1Zm0-.64.25-.59v-.25l-.35-.1v.84Zm0,1.63.1-.35h-.25Zm.1-11.77.15.35.35.1.15-.35-.3-.15Zm0,2.67h.2v-.2h-.2Zm0,4.9.1.45.25-.1.2-.49-.25.1Zm.2,9v-.27l-.2-.15v.3Zm-.1-7.86.25.1.2-.1.1-.25-.1-.2H318Zm.4,5.19V51l.2-.45h-.25v.74Zm1.63-5.93.1-.25h-.2Zm-.1.84.1.3.45.25.3-.45L320,46.2Zm0,1.29.25.1.15-.2V46.9l-.25-.1-.1.2Zm0,.45v1l.64.15.15-.49.1-.94-.35-.1-.25.4ZM320,51.2v-.46h-.25v.35Zm.1-14.14v-.32l-.25.1Zm2.13.45.25-.15.1-.3h-.25l-.1.2Zm.15,3.66.1-.49h-.25V41Zm0-6.23.15.1.3-.1.1-.3-.1-.3-.2-.15-.2.45Zm0,4,.3.54v.25l.2-.15-.1-.59-.2-.15Zm0-3,.35.44.25.1v-.3l-.25-.54.2-.25-.2-.2-.25.49Zm0,2.37h.3V38h-.2Zm.59-1.14h.25v-.3l-.25-.25-.15.3Z"/><path class="cls-1" d="M335.06,35.29l.74-.25.2-.2h-.3l-.2-.15.1-.25.5-.3.15-.25-.45-.44.1-.35.25-.1v-.3l.59-.3-.25-.4v-.3l.45-.3v-.3l-.1-.15.2-.25.4-1.14.5-.74.15-.59.69-.49-.1-.25.2-.64.54-.2.69-.1h.64l.5.25.54-.25h.79l.2.15.3-.4.25.15.59.1h1.29l.49.15h.3l.2-.15.84.4h.49l.2-.1.1.25h.35l.79.35.3.4v.89l.49.3.15.59.25.44.15.54-.1.35.45.15v.4l.4.74-.1.35,1,1.48.1.89.54.94.25.89v.35l.49.4.2,1.19.25.49.25.15,1.15,3.41.79,1.53v.35l.35.44.1.3-.1,1,.3.44.35.2-.1.49.1.25.5.25.15.59.54,1.33v.35l.4.3v1l.25.2.59,1,.54,1.73.15.25-.25.49.2.15h.35l.1.54.59,1.24v.59l-.59-.15.49.79.25.2.2-.2-.1-.44.2.15v.69l.35.4.2.54v.59l.44.2.25,1.24.2.54.4.49v.45l.1.25.45.4L363,65l-.15-.15-.4.54L361,65l-.94.44h-.35l-.25-.15-.1-.35-.49.25-1.09-.1-.45.2-.54.1h-2.2l-.44-.35-1.09-.49-.54-1-.3-.84v-.35l-.79-1.58-.35-.49-.45-.35-.69-.15-.35-.3-.54.2h-.64l-2.13-.25.1-.35-.2.15v.3h-1.83l.15-.25-.1-.35v-.3l-.35.2v.59l-1.48.15-.45-.3-.64.44-.59-.35-.35.15-.84-.1-.2.2-.54-.25-1.38.15-.74-.1-.89.84-.1.35-.25.1-.3-.1-.3.59.25.1h.25l-.2.2-.15.54v.4h-.45l-.49.79v.2l.2.2-.15.54v.35l-.79.35h-.54l-.25-.2-.1.25v.4l-1.93-.2-.25-.1-.54.25-.59.1L328,65.26l-.2-.45-.2.2-.15.35H324l-.4-1v-.69l.25-.1v-.64l.25-.49v-.35l.35-.1V61.4l.15-.3.25-.15h.25l.15-.25.15-.59.15-.25-.1-.25-.25-.1.4-.35.25-1.14.35-.45.1-.94.45-.15v-.59l.85-2.1.1-.64h.54v-.4l.1-.3.25-.2-.1-.3.2-.79.45.1V51l-.3-.44.35-.45.2-.94.25-.15.45-1.09.2-.2.35-1.14.25-.49.15-.59.64-.25-.2-.74.2-.25.49-1.19.25-.2-.1-.64.45.1.25-.94V41l.3-.49.2-1.24.15-.3.44.2.2-.2v-.64l.2-.2h.35v-.3l.2-.54-.25-.2.35-.49.54-.1-.2-.2-.25.1-.1-.15.1-.49Zm-7.27,23.94-.2.1.3,1v1.29l-.15.54.2.2.15.54.2.2.1-.25v-.36l-.3-.45v-.25l.54-.3-.2-.44-.15.2V60.8l-.15-.2v-.2l.15.1.1-.84-.45-.35-.1-.64h-.25V59Zm.59-1,.1.25h.3l-.15-.3Zm1.14-.3.2-.2v-.35l-.25-.1v.25Zm.35,5.29.2-.59v-.4l-.1-.3h-.15l-.15-.15-.1.25v.76l.1.3Zm.45-8.85-.1-.35-.25.1-.2.54.3.1-.1.45.25.1.49-.1-.1-.4.1-.59h-.1l-.2-.3v.3Zm-.54,5.93.25.15.3,1.29.2.15.1.44.1-.2.15.2V62l-.15-.44.15-.2h-.25l-.15-.64v-.79h-.35Zm.2-1.43.45.35.3.1.15-.54-.1-.3-.59.15Zm.54-1.73v-.49h-.35l-.1.25.15.2Zm-.3-1.14.2-.1.1-.25-.2-.1v.24Zm.2.49v-.3l-.2-.1.1.25Zm-.1,1.88.1-.15h.2l.1-.45-.49-.2v.54Zm-.1,6.33.3.25-.1-.44Zm.3-1.83.25-.2h-.15ZM332,53.64l-.1-.15-.25-.1v.25Zm-.1,4.15h.45l.54.15.4.35v-.54l-.69-.4h-.4l-.2-.44h-.15l-.15.35v.3Zm.2,1.24.1-.54-.2-.15-.15.25v.35Zm-.25-6,.35.25v.51l.3-.15.15-.3-.25-.2v-.35l.15-.4-.3.1-.2.25Zm0,8.11H332v-.2h-.15Zm0-6,.4-.1-.2-.35-.1.2Zm.1,4.2-.1.84h.3l-.1-.3.2-.15.15.1h.3l.1-.49v-.25l-.25-.1-.25.2Zm.1,1.38.1.54V61l.2-.1v.35l.3,1,.15-.54V61l-.15-.3-.2-.15Zm.2-8.6.25-.2.1-.35-.35-.1-.15.35Zm.2,4.55H333l-.35-.4-.49-.25.1.4Zm0,6h.4v-.3l-.15-.15-.15.2Zm.1-7.57.2.1.1-.2-.2-.1Zm.1-1.29.3-.2h-.2Zm1.29.84V55l.45.3.15.2.15-.3v-.4l-.59-.15Zm0,2.27.25.45-.1.64.1.3.74-.2L334.49,57l-.2-.25Zm.1-3.21.35-.25-.25-.2-.1.2Zm.1,2.13.25.1v-.3l-.15-.35-.1.25Zm.45,4.55.15-.15v-.59h-.3l-.2-.15v.4l.1.3ZM335,47.16l-.25-.4v.49Zm.3,9.15-.15-.25h-.3l.15.25Zm-.35,3.26v-.15h.3l.15-.1.1-.35H335l-.1.3Zm1.63-20,.15.1.1-.2-.15-.1Zm.54,14.34v-.3h-.49l.2.25Zm-.54,1.53.2.15-.1.15v.35h.25l.4-.3-.25-.2v-.25l.1-1h-.3l-.1.89Zm.1-13.75v.2h.3l-.1-.3Zm0-3.56.1.64.54.15.1-.35-.25-.15-.1-.3h.44l-.2-.54-.35-.45-.1.25v.79Zm0,14.94h.3l.15-.15v-.3h-.3l-.15.15Zm.2,4.85.1.4.4-.1.1-.25-.35-.3Zm.4-21.36v-1H337v.89Zm-.3,8.06.2.1.1-.2-.2-.1Zm0,2.17h.3l-.3-.2ZM337,57l.3.1-.1-.3Zm.2-6.33-.1.3.2-.2Zm.34-10.91v-.4l-.2-.25-.1.25.1.25Zm1.19,2.08.27-.08v-.3l-.2-.15v.25Zm.1,13.7h.3v-.25L339,55l-.25.1.1.2Zm0-17.7.25-.15v-.4l.25-.1.1-.25-.3-.1-.15.25v.35Zm0,18.54.54.35-.1-.64-.3.1Zm.74-23V33l-.15-.25L339,32.6l.1.25.25.25Zm-.2,20.23.1.2v-.35l-.2-.25-.3-.15v.35l.25.15Zm-.37-5.7h.15l-.1-.25Zm0,10.88h.3v-.3h-.2Zm.2-.84.2-.2.1-.4-.2-.2-.25.54Zm-.1-27,.49.25v-.64l-.2-.15-.1.3Zm0,14.39h.35V45l-.25-.2v.3Zm.1-9.94h.3l.25-.4h-.3l-.2.15Zm0,2.67h.3l-.1-.25Zm0,.69.2.15v.25l.25-.15-.1-.3-.25-.2Zm0,12.26h.3v-.25l-.15-.15Zm.1-10.68.2-.15-.2-.15Zm0,1.73h.3l-.1-.35-.2-.1Zm.35-9.89-.15-.44v.35ZM339.5,34h.15v-.2h-.15Zm.35,20.52v-.35h-.25l.1.2ZM342.42,43l-.4.3V44l-.79,1.53-.1.54v.35l-.3.1-.15.15.15.4-.25,1-.45.35L340,49l.2,1.19.54.25h2.08l.59.2.54-.2.79.2,1.88-.3.54-.74.25-.15-.54-.84-.1-.64-.25-.15-.3-.94.2-.44-.4-.35v-.25l.1-.35-.35-.1-.3-.54.15-.3v-.89l-.59.2-.15-1.19.15-.3-.4-.4v-.4l-.35-.1-.4-.49-.25-.15-.69.89-.35.84ZM341.2,57.85l.2-.1-.2-.15Zm.25-22.16.49.25.1-.25-.1-.3-.2.2Zm0,19.88.2-.1.2-.25-.4-.3Zm.2-16.42.44.1-.35-.54.3-.64h-.4l-.15.2.1.59Zm-.1-5h.2V34h-.2Zm.4,1,.1-.49h-.5l.1.35Zm-.4,21,.2.54-.2.2.25.2v.59l.2.2.15-.54-.2-.15v-.94l-.2-.25Zm.3-23.24.45-.4-.1-.74h-.35l-.2.1.25.25v.54Zm-.2,1h.2v-.2h-.2Zm.54-2.92.1-.25-.1-.84h-.35l-.1-.1v.59l.3.45Zm-.45,22.45.35-.2-.35-.1Zm.45,5.09v-.3h-.25v.3Zm1.38-23.09.3-.1V34.8l.2.2.2-.44-.3-.1-.4.69Zm.25,21.46.25-.15.2-.59-.1-.25-.25-.1-.2.84Zm0-25.77.35.45h.3V31l-.15-.25H344Zm0,1.38h.35l-.2-.25Zm.45,6.38-.2-.49-.2-.2.13.59ZM344,54.72l.49-.1-.1-.25-.25-.15-.25.1Zm.2-25.67h.2l-.1-.2-.2.1Zm-.2,23.5h.3l.15-.2-.15-.2-.2.2Zm.2-13.3h.2l-.1-.2-.2-.1Zm.35-1.48v-.3l-.2-.15-.1.25.1.15Zm0-4.65v-.33l-.25.2Zm1,9.84v-.25l-.3-.1v.3Zm.35-10.29v-.25l-.15-.15v.25Zm-.1.74.59.54.25.1v-.3l-.35-.45H346Zm.45,5.29V39h.25v-.25l-.15-.3-.44-.1v.3Zm.1-.94-.2-.25v.2Zm.3,19.19-.15-.4.15-.89-.1-.2-.2.1v.3l-.2.54.1.45Zm-.4-15.08.1-.2-.1-.15Zm.4,12.81.1-.69v-.94l-.3-.74-.2-.2v1.78l.2.54Zm-.2-11.52.3-.25h-.25Zm1.83-3.56.2.3v.35l-.35.2.1.35.74.3-.54.35-.1.84.54.25-.2.25-.1.4-.45.1v1.14l.15.15.15-.3.1.64-.45.1v.35h.35l.64.64h.3l-.2-.1-.1-.2.2.1.1-.45-.25-.1-.1-.59.25-.49H349l-.15-.35.35-.1V42.44l-.15-.49-.15-.2.35.1.2-.54-.15-.54-.3-.4.15-.2v-.79l.15-.3H349l-.49.25-.2.25Zm-.1,7.42.35.54v.3h.25l-.1-.35v-.25l.15-.15-.49-.3ZM349,53.3l.1.44-.2-.15v.54l-.4-.2-.1.54.1.2v-.3h.64l.25-.45v-.69h-.25Zm-.54-1.19.3.1.15-.35h-.3Zm.25,3.86.25-.1.15.15-.15.2v.3l.64.25v-.25l-.25-.2-.15-.3.4-.44-.2-.15h-.64v.3Zm0-20,.27-.18-.1-.2Zm0,13h.2v-.2l-.2-.1Zm.2-11.57.2-.15.1-.25-.1-.3-.2-.15-.1.59Zm-.1,1.19h.3v-.3h-.35Zm.1-3.12h.2v-.15H349ZM349.28,47v-.2H349ZM349,50.45l.2.2.35.1V50.4l.15-.49h-.35l-.25.2Zm0,1.48.3.49.25.15h.25l-.3-.79-.25-.2-.15.2Zm0,3.26.25-.1v-.3H349Zm.1-20.92h.25l-.25-.15Zm.35,15.18v-.3l-.25-.1v.3Zm1.63-2.12.44-.15v.35l-.44.25v1.29l-.15.84.3.25-.35.49v1l.15-.2-.1.35-.25.2.29.79v-.35l-.15-.2.2-.15v-.25l.2-.15.1.25h.35l-.25-.59.25-.25.1-.3v-1l.1-.3-.4-.4.4-.45-.15-1.14.15-.79-.15-.25-.25-.1-.25.1-.2.59Zm-.2,6v.35l.1.2.3-.1.25.2.1.3.4-.4v-.35l-.84-.2Zm.49-8.75.15.64-.25.1-.25.3v.17l.25.15.1-.25.25-.2v.3l.2.1.1-.25v-.89l-.15-.35Zm-.3-3.12.3-.15h.25l.3-.64-.64.59Zm0,11.33.2.35h.3L352,53v-.35l-.2-.4h-.35v.25l-.2.15Zm.44-12.61v-.35h-.3l.1.25Zm-.35,4h.25l.1.2.2-.54h-.35Zm.45,13.3v-.2h-.25ZM351.49,56l.2-.1v-.3l-.2-.2Zm.25-1.29-.1.25.25-.15-.15-.25h-.2Zm-.1,1.73.2-.15-.2-.15Zm.64-10.58h.2v-.2h-.2Zm.72-7h.3l-.1-.2-.2-.1Zm.35,11.67v-.35l-.15-.2v.4Zm0,.64.15,1.19.4,1h-.3l-.25-.15v.64l-.1.2.25.1.15.25.25.1-.15-.25v-.49l.64-.15v-1.3l-.3-.15v-.4l.35-.54-.74-.15Zm.45-3.86-.1.3.2.25h.1l.2-2.18-.64-.3V46l.2,1Zm-.1-2.08L354,45v-.3h-.4Zm0,3.17.2.4-.3.49v.3l.4,1.19h.59L354.34,49l-.35-.74Zm.35-5.39-.35-.54v.25l.1.25Zm0,14.64.2-.1-.1-.35h-.44l.1.3Zm-.24-1.79h.25v-.3l-.2-.15-.15.2Zm.35-12.22-.1-.3h-.15l.1.15Zm1.38,10.73.35.4.1-.4Zm.25-8.56.4-.1-.3-.2Zm0,6.28L356,52l.15.49.45-.1V52l-.25-.44H356l-.2.15Zm.2.84h.3l-.1-.3Zm.2,7.32-.2-.3v.3Zm-.1-6.78.2.25.25.1v-.3l-.25-.2Zm.25,8h.2v-.15h-.2Zm1.93-7-.1-.3h-.35v.3l.15.15Zm.3,2.82h.15v-.15h-.15Zm.25,7.71h.2l-.2-.3Zm1.93-2.23h.3l.15-.15v-.3l-.1-.2-.3.35Zm.2,1.63h.25l.1-.2v-.34l-.45.3Zm.15-4.65v.2l.2-.1-.1-.2Zm1.48,4.06.2-.15-.2-.15Zm.1.54h.45L363,64l-.15.15Z"/><path class="cls-2" d="M37.49,12.16c0-3.75,2-7.29,5.91-7.29s6,3.55,6,7.29-2,7.29-6,7.29S37.49,15.93,37.49,12.16Zm3.58,0c0,2.38,1,3.82,2.32,3.82s2.36-1.44,2.36-3.82-1-3.8-2.36-3.8S41.07,9.79,41.07,12.16Z"/><path class="cls-2" d="M50.88,9.8a.3.3,0,0,1-.41-.29V6.63a.62.62,0,0,1,.41-.58l2.25-.77A2.68,2.68,0,0,1,54,5.14h1.55a.44.44,0,0,1,.43.43V18.75a.44.44,0,0,1-.43.43H52.81a.44.44,0,0,1-.43-.43V9.64A.25.25,0,0,0,52,9.41Z"/><path class="cls-2" d="M57.59,17.22a2.27,2.27,0,1,1,2.27,2.27A2.27,2.27,0,0,1,57.59,17.22Z"/><path class="cls-2" d="M70.18,5.57a.44.44,0,0,1,.43-.43h2.72a.44.44,0,0,1,.43.43V14c0,3.76-2.43,5.47-5.35,5.47A5.09,5.09,0,0,1,63,14v-.79a.44.44,0,0,1,.43-.43H66.2a.44.44,0,0,1,.43.43v.74c0,1.67.85,2.05,1.78,2.05s1.76-.38,1.76-2.05Z"/><path class="cls-2" d="M84.92,5.57a.44.44,0,0,1,.43-.43h2.72a.44.44,0,0,1,.43.43V13A6,6,0,0,1,82,19.41c-4.19,0-6.45-2.75-6.45-6.41V5.57A.44.44,0,0,1,76,5.14h2.74a.44.44,0,0,1,.43.43v7.26c0,2,1,3.15,2.84,3.15s2.88-1.12,2.88-3.15Z"/><path class="cls-2" d="M94.06,18.75a.44.44,0,0,1-.43.43H90.89a.44.44,0,0,1-.43-.43V5.57a.44.44,0,0,1,.43-.43h2.2a.89.89,0,0,1,.7.34l5.78,7.22a.12.12,0,0,0,.22-.07V5.57a.44.44,0,0,1,.43-.43h2.72a.44.44,0,0,1,.43.43V18.75a.44.44,0,0,1-.43.43h-2.18a.89.89,0,0,1-.7-.34l-5.78-7.2a.12.12,0,0,0-.22.07Z"/><path class="cls-2" d="M105.06,17.22a2.27,2.27,0,1,1,2.27,2.27h0A2.28,2.28,0,0,1,105.06,17.22Z"/><path class="cls-2" d="M110.71,9.8a.3.3,0,0,1-.41-.29V6.63a.62.62,0,0,1,.41-.58L113,5.28a2.68,2.68,0,0,1,.85-.14h1.55a.44.44,0,0,1,.43.43V18.75a.44.44,0,0,1-.43.43h-2.72a.44.44,0,0,1-.43-.43V9.64a.25.25,0,0,0-.25-.25l-.09,0Z"/><path class="cls-2" d="M118.87,19.18a.22.22,0,0,1-.18-.34l2.7-3.71a.2.2,0,0,0-.14-.32,4.45,4.45,0,0,1-3.93-4.56A5.37,5.37,0,0,1,128,10.16a6.07,6.07,0,0,1-1.33,3.65l-3.69,5a.88.88,0,0,1-.68.34Zm5.67-8.88a1.86,1.86,0,1,0-1.94,1.78h.09a1.89,1.89,0,0,0,1.48-.74,1.53,1.53,0,0,0,.37-1Z"/><path class="cls-3" d="M145.36,12.16a7.29,7.29,0,1,1,9.42,7,.1.1,0,0,0,0,.18c1.78.92,3.58,2.14,5.06,2.14a2.27,2.27,0,0,0,1.76-.72.32.32,0,0,1,.45,0l0,0,.32.27a.33.33,0,0,1,0,.45,3.4,3.4,0,0,1-2.58,1.08c-2.77,0-5.67-3-8-3.1A7.27,7.27,0,0,1,145.36,12.16Zm1.08,0a6.2,6.2,0,1,0,6.21-6.23A6.2,6.2,0,0,0,146.44,12.16Z"/><path class="cls-3" d="M173.48,5.46a.32.32,0,0,1,.32-.32h.41a.32.32,0,0,1,.32.32h0v8.41c0,3.15-2.05,5.58-5.89,5.58s-5.89-2.43-5.89-5.58V5.46a.32.32,0,0,1,.32-.32h.41a.32.32,0,0,1,.32.32h0v8.37c0,2.65,1.69,4.57,4.83,4.57s4.83-1.93,4.83-4.57Z"/><path class="cls-3" d="M178.37,5.46a.32.32,0,0,1,.32-.32h.41a.32.32,0,0,1,.32.32h0v13.4a.32.32,0,0,1-.32.32h-.41a.32.32,0,0,1-.32-.32h0Z"/><path class="cls-3" d="M184.51,18.86a.32.32,0,0,1-.32.32h-.41a.32.32,0,0,1-.32-.32h0V5.46a.32.32,0,0,1,.32-.32h.31a.73.73,0,0,1,.52.25L194,17.17a.09.09,0,0,0,.16,0V5.46a.32.32,0,0,1,.32-.32h.41a.32.32,0,0,1,.32.32h0v13.4a.32.32,0,0,1-.32.32h-.31a.67.67,0,0,1-.52-.25L184.67,7.17a.09.09,0,0,0-.16.05Z"/><path class="cls-3" d="M198,6.18a.32.32,0,0,1-.32-.32h0v-.4a.32.32,0,0,1,.32-.32h10.55a.32.32,0,0,1,.32.32h0v.4a.32.32,0,0,1-.32.32H204a.25.25,0,0,0-.25.25V18.86a.32.32,0,0,1-.32.32H203a.32.32,0,0,1-.32-.32h0V6.44a.25.25,0,0,0-.25-.25Z"/><path class="cls-3" d="M214,5.43a.56.56,0,0,1,.47-.29h.5a.55.55,0,0,1,.47.29L221.6,18.9a.19.19,0,0,1-.18.29h-.52a.5.5,0,0,1-.45-.29l-1.21-2.65a.41.41,0,0,0-.36-.23h-8.32a.41.41,0,0,0-.36.23L209,18.9a.5.5,0,0,1-.45.29H208a.19.19,0,0,1-.18-.29Zm.83,1.1a.12.12,0,0,0-.22,0l-3.73,8.25A.16.16,0,0,0,211,15l.07,0h7.38a.16.16,0,0,0,.14-.23Z"/><path class="cls-4" d="M246.44,18.12a.32.32,0,0,1,.32.32h0v.41a.32.32,0,0,1-.32.32H237.8a.32.32,0,0,1-.32-.32h0V18.7a.82.82,0,0,1,.23-.56L243,13c1.39-1.35,2.54-2.41,2.54-4a3.07,3.07,0,0,0-3-3.11h-.26a3.29,3.29,0,0,0-3.58,3.44c0,.18-.09.23-.18.23h-.67c-.11,0-.2-.05-.2-.23a4.34,4.34,0,0,1,4.19-4.49h.44a4.12,4.12,0,0,1,4.38,3.84q0,.15,0,.3c0,2-1.51,3.4-2.9,4.75l-4.32,4.18a.1.1,0,0,0,.07.18Z"/><path class="cls-4" d="M260.44,18.12a.32.32,0,0,1,.32.32h0v.41a.32.32,0,0,1-.32.32H251.8a.32.32,0,0,1-.32-.32h0V18.7a.82.82,0,0,1,.23-.56L257,13c1.39-1.35,2.54-2.41,2.54-4a3.07,3.07,0,0,0-3-3.11h-.26a3.29,3.29,0,0,0-3.58,3.44c0,.18-.09.23-.18.23h-.67c-.11,0-.2-.05-.2-.23a4.34,4.34,0,0,1,4.19-4.49h.44a4.12,4.12,0,0,1,4.38,3.84q0,.15,0,.3c0,2-1.51,3.4-2.9,4.75l-4.32,4.18a.1.1,0,0,0,.07.18Z"/><path class="cls-4" d="M280,5.46a.32.32,0,0,1,.32-.32h.41a.32.32,0,0,1,.32.32h0v13.4a.32.32,0,0,1-.32.32h-.41a.32.32,0,0,1-.32-.32h0V13a.25.25,0,0,0-.25-.25H270.6a.25.25,0,0,0-.25.25v5.82a.32.32,0,0,1-.32.32h-.41a.32.32,0,0,1-.32-.32h0V5.46a.32.32,0,0,1,.32-.32H270a.32.32,0,0,1,.32.32h0v6.07a.25.25,0,0,0,.25.25h9.15a.25.25,0,0,0,.25-.25Z"/><path class="cls-4" d="M284.09,12.16a7.32,7.32,0,1,1,7.35,7.29h0A7.32,7.32,0,0,1,284.09,12.16Zm1.08,0a6.24,6.24,0,1,0,6.25-6.23,6.24,6.24,0,0,0-6.25,6.23Z"/><path class="cls-4" d="M301.75,5.46a.32.32,0,0,1,.32-.32h5.87a4.46,4.46,0,0,1,4.78,4.12q0,.2,0,.4a4.4,4.4,0,0,1-3,4.27.19.19,0,0,0-.11.24l0,0,3.37,4.7a.17.17,0,0,1-.14.27h-.65a.62.62,0,0,1-.5-.27l-3.24-4.56a.42.42,0,0,0-.32-.14h-5.11a.25.25,0,0,0-.25.25v4.39a.32.32,0,0,1-.32.32h-.41a.32.32,0,0,1-.32-.32h0Zm6.16.68h-4.84a.25.25,0,0,0-.25.25V13a.25.25,0,0,0,.25.25h4.84a3.54,3.54,0,1,0,0-7.06Z"/><path class="cls-4" d="M320.46,5.43a.55.55,0,0,1,.47-.29h.5a.55.55,0,0,1,.47.29l6.16,13.47a.19.19,0,0,1-.18.29h-.52a.5.5,0,0,1-.45-.29l-1.21-2.65a.41.41,0,0,0-.36-.23H317a.41.41,0,0,0-.36.23l-1.19,2.65a.5.5,0,0,1-.45.29h-.54a.19.19,0,0,1-.18-.29Zm.83,1.1a.12.12,0,0,0-.22,0l-3.73,8.25a.16.16,0,0,0,.07.21l.07,0h7.38a.16.16,0,0,0,.14-.23Z"/><path class="cls-4" d="M329,16.07a.37.37,0,0,1,.34-.4h.33A.39.39,0,0,1,330,16c.22,1.42,1.85,2.43,4.39,2.43s4-1.1,4-2.61c0-1.84-2-2.48-4.36-3.21s-5-1.57-5-4.1c0-2.2,2-3.67,5-3.67s5.09,1.39,5.24,3.4c0,.16-.13.4-.29.4h-.4a.37.37,0,0,1-.36-.36c-.2-1.44-1.76-2.45-4.2-2.45S330.2,7,330.2,8.47c0,1.8,1.91,2.43,4.19,3.15s5.19,1.55,5.19,4.18c0,2.21-2,3.65-5.15,3.65S329.2,18.09,329,16.07Z"/><path class="cls-5" d="M84.71,86.6a.41.41,0,0,1-.4.4H81.79a.41.41,0,0,1-.4-.4V74.37a.41.41,0,0,1,.4-.4h2.56a.71.71,0,0,1,.58.35l3.42,6.82a.16.16,0,0,0,.3,0l3.44-6.82a.71.71,0,0,1,.58-.35h2.56a.41.41,0,0,1,.4.4V86.6a.41.41,0,0,1-.4.4H92.71a.41.41,0,0,1-.4-.4V80.65a.08.08,0,0,0-.15,0l-2.37,4.76a.71.71,0,0,1-.58.35H87.82a.71.71,0,0,1-.58-.35l-2.37-4.76a.08.08,0,0,0-.15,0Z"/><path class="cls-5" d="M97,80.48a6.92,6.92,0,1,1,7.07,6.77h-.15A6.89,6.89,0,0,1,97,80.48Zm3.38,0a3.54,3.54,0,1,0,3.54-3.54,3.54,3.54,0,0,0-3.54,3.54h0Z"/><path class="cls-5" d="M115.57,86.6a.41.41,0,0,1-.4.4h-2.54a.41.41,0,0,1-.4-.4V74.37a.41.41,0,0,1,.4-.4h2a.82.82,0,0,1,.65.32l5.36,6.7a.11.11,0,0,0,.2-.07V74.37a.41.41,0,0,1,.4-.4h2.52a.41.41,0,0,1,.4.4V86.6a.41.41,0,0,1-.4.4h-2a.82.82,0,0,1-.65-.32L115.77,80a.11.11,0,0,0-.2.07Z"/><path class="cls-5" d="M125.81,77.21a.41.41,0,0,1-.4-.4V74.37a.41.41,0,0,1,.4-.4h10.66a.41.41,0,0,1,.4.4v2.44a.41.41,0,0,1-.4.4h-3.33a.34.34,0,0,0-.33.33V86.6a.41.41,0,0,1-.4.4h-2.54a.41.41,0,0,1-.4-.4V77.54a.34.34,0,0,0-.33-.33Z"/><path class="cls-5" d="M138.47,87a.41.41,0,0,1-.4-.4V74.37a.41.41,0,0,1,.4-.4h9.21a.41.41,0,0,1,.4.4v2.44a.41.41,0,0,1-.4.4h-5.93a.34.34,0,0,0-.33.33v1.2a.34.34,0,0,0,.33.33h4.75a.41.41,0,0,1,.4.4V81.7a.41.41,0,0,1-.4.4h-4.75a.34.34,0,0,0-.33.33v1a.34.34,0,0,0,.33.33h5.93a.41.41,0,0,1,.4.4V86.6a.41.41,0,0,1-.4.4Z"/><path class="cls-5" d="M149.19,83.56a.46.46,0,0,1,.43-.47h2.26c.38,0,.47.08.67.43a2.28,2.28,0,0,0,2.09.84c1.25,0,1.65-.42,1.65-.8,0-.55-.65-.88-2.22-1.42-2.07-.68-4.79-1.69-4.79-4.38,0-2.49,2.12-4,5.1-4s5.16,1.59,5.33,3.93a.46.46,0,0,1-.43.47H157a.54.54,0,0,1-.57-.45,1.9,1.9,0,0,0-1.94-1.05c-1.14,0-1.59.45-1.59.89s.6.79,2.16,1.32c1.8.64,4.88,1.71,4.88,4.56,0,2.54-2.21,3.88-5.18,3.88S149.42,85.95,149.19,83.56Z"/><path class="cls-5" d="M175.28,82.52a.44.44,0,0,1,.58-.18l2.32,1a.35.35,0,0,1,.17.47l0,0a6.77,6.77,0,1,1,0-6.78.38.38,0,0,1-.15.52h0l-2.31,1a.42.42,0,0,1-.57-.16h0a3.54,3.54,0,1,0,0,4.08Z"/><path class="cls-5" d="M180.1,87a.41.41,0,0,1-.4-.4V74.37a.41.41,0,0,1,.4-.4h2.52a.41.41,0,0,1,.4.4v9.07a.34.34,0,0,0,.33.33h5.51a.41.41,0,0,1,.4.4V86.6a.41.41,0,0,1-.4.4Z"/><path class="cls-5" d="M194.62,74.33a.6.6,0,0,1,.55-.37h2.51a.6.6,0,0,1,.55.37l5,12.3a.27.27,0,0,1-.15.35l-.1,0H200.1a.58.58,0,0,1-.54-.37l-.47-1.22a.49.49,0,0,0-.45-.32h-4.46a.49.49,0,0,0-.45.32l-.47,1.22a.58.58,0,0,1-.54.37h-2.84a.27.27,0,0,1-.25-.37Zm2.89,7.74a.24.24,0,0,0,.22-.32l-1.19-3.19a.12.12,0,0,0-.23,0l-1.2,3.19a.24.24,0,0,0,.15.31h2.25Z"/><path class="cls-5" d="M204.34,74.37a.41.41,0,0,1,.4-.4h6c3.34,0,4.88,2.17,4.88,4.76a4.57,4.57,0,0,1-2.27,4.18.29.29,0,0,0-.12.39l0,0,2.39,3.33a.21.21,0,0,1-.17.33h-3.19a.81.81,0,0,1-.63-.33l-2-2.89a.67.67,0,0,0-.53-.27h-1a.34.34,0,0,0-.33.33V86.6a.41.41,0,0,1-.4.4h-2.52a.41.41,0,0,1-.4-.4ZM210.52,77H208a.34.34,0,0,0-.33.33v2.81a.34.34,0,0,0,.33.33h2.52a1.63,1.63,0,0,0,1.84-1.72A1.61,1.61,0,0,0,210.52,77Z"/><path class="cls-5" d="M216.51,80.48a6.92,6.92,0,1,1,7.07,6.77h-.15A6.89,6.89,0,0,1,216.51,80.48Zm3.38,0a3.54,3.54,0,1,0,3.54-3.54h0a3.53,3.53,0,0,0-3.54,3.52S219.89,80.47,219.89,80.48Z"/><path class="cls-5" d="M231.22,83.56a.46.46,0,0,1,.43-.47h2.26c.38,0,.47.08.67.43a2.28,2.28,0,0,0,2.09.84c1.25,0,1.65-.42,1.65-.8,0-.55-.65-.88-2.22-1.42-2.07-.68-4.79-1.69-4.79-4.38,0-2.49,2.12-4,5.1-4s5.16,1.59,5.33,3.93a.46.46,0,0,1-.43.47H239a.54.54,0,0,1-.57-.45,1.89,1.89,0,0,0-1.94-1.05c-1.14,0-1.59.45-1.59.89s.6.79,2.16,1.32c1.8.64,4.88,1.71,4.88,4.56,0,2.54-2.21,3.88-5.18,3.88S231.46,85.95,231.22,83.56Z"/><path class="cls-5" d="M251.59,71.34a.71.71,0,0,1,.58-.35H255a.24.24,0,0,1,.22.35l-9.34,18.28a.71.71,0,0,1-.58.35h-2.8a.24.24,0,0,1-.22-.35Z"/><path class="cls-5" d="M259.8,86.6a.41.41,0,0,1-.4.4h-2.52a.41.41,0,0,1-.4-.4V74.37a.41.41,0,0,1,.4-.4h2.56a.71.71,0,0,1,.58.35l3.42,6.82a.16.16,0,0,0,.3,0l3.44-6.82a.71.71,0,0,1,.58-.35h2.56a.41.41,0,0,1,.4.4V86.6a.41.41,0,0,1-.4.4H267.8a.41.41,0,0,1-.4-.4V80.65a.08.08,0,0,0-.15,0l-2.37,4.76a.71.71,0,0,1-.58.35h-1.39a.71.71,0,0,1-.58-.35L260,80.62a.08.08,0,0,0-.15,0Z"/><path class="cls-5" d="M279.06,82.17a.41.41,0,0,1-.4-.4v-2a.41.41,0,0,1,.4-.4h5.48a.41.41,0,0,1,.4.4v6.8a.41.41,0,0,1-.4.4h-1.82a.41.41,0,0,1-.4-.4v-.48a.11.11,0,0,0-.2-.07,4.15,4.15,0,0,1-3.09,1.2,6.77,6.77,0,0,1-.52-13.53H279a7,7,0,0,1,5.26,2.41.37.37,0,0,1-.06.52h0l-2,1.37a.47.47,0,0,1-.62-.07A3.5,3.5,0,1,0,279,84a3.36,3.36,0,0,0,2.69-1.35.58.58,0,0,0,.1-.28v-.05a.18.18,0,0,0-.17-.17Z"/></svg>