<svg id="Camada_1" data-name="Camada 1" xmlns="http://www.w3.org/2000/svg" viewBox="0 0 113 36"><defs><style>.cls-1{fill:#f2f2f2;}.cls-2{fill:#b3b3b3;}</style></defs><title>Prancheta 1</title><path class="cls-1" d="M1.53,34.64a.09.09,0,0,1-.1-.1v-10a.1.1,0,0,1,.1-.11H2c.06,0,.1,0,.1.11v10a.09.09,0,0,1-.1.1Z"/><path class="cls-1" d="M12.75,24.47c.06,0,.1,0,.1.11v10a.09.09,0,0,1-.1.1h-.38a.12.12,0,0,1-.11,0L4.91,25.74v8.81a.09.09,0,0,1-.1.1H4.32a.09.09,0,0,1-.1-.1v-10a.1.1,0,0,1,.1-.11h.36a.15.15,0,0,1,.11,0l7.37,8.85V24.57a.1.1,0,0,1,.1-.11Z"/><path class="cls-1" d="M23.46,29.73c.08,0,.11,0,.11.1v4.71c0,.06,0,.1-.11.1h-.31a.1.1,0,0,1-.11-.1l-.1-1.06a4.83,4.83,0,0,1-3.48,1.33,4.81,4.81,0,0,1-3.6-1.46,5.2,5.2,0,0,1-1.41-3.77,5.24,5.24,0,0,1,1.42-3.8,4.84,4.84,0,0,1,3.55-1.49,4.64,4.64,0,0,1,3.73,1.6s0,.07,0,.13l-.32.33a.1.1,0,0,1-.15,0,3.86,3.86,0,0,0-3.18-1.38,4.27,4.27,0,0,0-3.14,1.3,4.58,4.58,0,0,0-1.23,3.32,4.6,4.6,0,0,0,1.23,3.34,4.3,4.3,0,0,0,3.24,1.28,3.81,3.81,0,0,0,3.33-1.57V30.33H19.52a.11.11,0,0,1-.12-.11v-.39c0-.06,0-.1.12-.1Z"/><path class="cls-1" d="M32.38,34.51q.07.13-.08.13h-.54s-.08,0-.09-.06l-2.15-4.27H26v4.21a.09.09,0,0,1-.1.1H25.4a.09.09,0,0,1-.1-.1v-10a.1.1,0,0,1,.1-.11h3.8a3.62,3.62,0,0,1,2.44.79,2.64,2.64,0,0,1,.92,2.11,2.76,2.76,0,0,1-.62,1.82,3.11,3.11,0,0,1-1.7,1ZM26,29.69h3.21a2.86,2.86,0,0,0,2-.64,2.22,2.22,0,0,0,0-3.29,2.89,2.89,0,0,0-2-.63H26Z"/><path class="cls-1" d="M41.29,34a.1.1,0,0,1,.11.1v.45c0,.06,0,.1-.11.1H34.21a.09.09,0,0,1-.1-.1v-10a.1.1,0,0,1,.1-.11h7c.06,0,.1,0,.11.11V25c0,.06,0,.1-.11.11H34.79v4.08h5.46a.09.09,0,0,1,.1.1v.4a.09.09,0,0,1-.1.1H34.79V34Z"/><path class="cls-1" d="M42.17,33.19a.12.12,0,0,1,0-.14l.26-.36a.11.11,0,0,1,.16,0A6.13,6.13,0,0,0,44,33.78a3.43,3.43,0,0,0,1.7.38,3.09,3.09,0,0,0,2-.6,2,2,0,0,0,.73-1.64,1.57,1.57,0,0,0-.65-1.41,7.36,7.36,0,0,0-2.21-.79,9.07,9.07,0,0,1-2-.65,2.12,2.12,0,0,1-1.16-2,2.45,2.45,0,0,1,.92-2,3.69,3.69,0,0,1,2.42-.75A4.45,4.45,0,0,1,49,25.77a.12.12,0,0,1,0,.14l-.23.35a.11.11,0,0,1-.15,0,6,6,0,0,0-1.33-1A3.4,3.4,0,0,0,45.77,25a3.11,3.11,0,0,0-2,.57,1.81,1.81,0,0,0-.75,1.52,1.61,1.61,0,0,0,.52,1.19,1.92,1.92,0,0,0,.6.35,5.18,5.18,0,0,0,.67.23l.79.19,1,.26a7.09,7.09,0,0,1,.91.32,2.78,2.78,0,0,1,.82.51,2.54,2.54,0,0,1,.71,1.8,2.61,2.61,0,0,1-.9,2.1,3.67,3.67,0,0,1-2.46.77A4.66,4.66,0,0,1,42.17,33.19Z"/><path class="cls-1" d="M50.06,33.19A.12.12,0,0,1,50,33l.26-.36a.11.11,0,0,1,.16,0,6.14,6.14,0,0,0,1.41,1.11,3.43,3.43,0,0,0,1.7.38,3.09,3.09,0,0,0,2-.6,2,2,0,0,0,.73-1.64,1.57,1.57,0,0,0-.65-1.41,7.35,7.35,0,0,0-2.21-.79,9.07,9.07,0,0,1-2-.65,2.12,2.12,0,0,1-1.16-2,2.45,2.45,0,0,1,.92-2,3.69,3.69,0,0,1,2.42-.75,4.45,4.45,0,0,1,3.29,1.4.12.12,0,0,1,0,.14l-.23.35a.11.11,0,0,1-.15,0,6,6,0,0,0-1.33-1A3.4,3.4,0,0,0,53.65,25a3.11,3.11,0,0,0-2,.57,1.81,1.81,0,0,0-.75,1.52,1.61,1.61,0,0,0,.52,1.19,1.92,1.92,0,0,0,.6.35,5.18,5.18,0,0,0,.67.23l.79.19,1,.26a7.09,7.09,0,0,1,.91.32,2.78,2.78,0,0,1,.82.51A2.54,2.54,0,0,1,57,32a2.61,2.61,0,0,1-.9,2.1,3.67,3.67,0,0,1-2.46.77A4.66,4.66,0,0,1,50.06,33.19Z"/><path class="cls-1" d="M63.22,34.82a5,5,0,0,1-3.77-1.41A5.13,5.13,0,0,1,58,29.63a5.21,5.21,0,0,1,1.41-3.82,5.66,5.66,0,0,1,7.54,0,5.26,5.26,0,0,1,1.4,3.82A5.15,5.15,0,0,1,67,33.41,5.07,5.07,0,0,1,63.22,34.82Zm3.26-1.9a4.45,4.45,0,0,0,1.22-3.29,4.57,4.57,0,0,0-1.22-3.33,4.85,4.85,0,0,0-6.51,0,4.59,4.59,0,0,0-1.22,3.33A4.48,4.48,0,0,0,60,32.92a4.94,4.94,0,0,0,6.52,0Z"/><path class="cls-1" d="M69.39,33.19a.12.12,0,0,1,0-.14l.26-.36a.11.11,0,0,1,.16,0,6.14,6.14,0,0,0,1.41,1.11,3.43,3.43,0,0,0,1.7.38,3.09,3.09,0,0,0,2-.6,2,2,0,0,0,.73-1.64A1.57,1.57,0,0,0,75,30.52a7.35,7.35,0,0,0-2.21-.79,9.07,9.07,0,0,1-2-.65,2.12,2.12,0,0,1-1.16-2,2.45,2.45,0,0,1,.92-2,3.69,3.69,0,0,1,2.42-.75,4.45,4.45,0,0,1,3.29,1.4.12.12,0,0,1,0,.14l-.23.35a.11.11,0,0,1-.15,0,6,6,0,0,0-1.33-1A3.4,3.4,0,0,0,73,25a3.11,3.11,0,0,0-2,.57,1.81,1.81,0,0,0-.75,1.52,1.61,1.61,0,0,0,.52,1.19,1.92,1.92,0,0,0,.6.35,5.18,5.18,0,0,0,.67.23l.79.19,1,.26a7.09,7.09,0,0,1,.91.32,2.78,2.78,0,0,1,.82.51,2.54,2.54,0,0,1,.71,1.8,2.61,2.61,0,0,1-.9,2.1,3.67,3.67,0,0,1-2.46.77A4.66,4.66,0,0,1,69.39,33.19Z"/><path class="cls-1" d="M78.13,34.56a.66.66,0,0,1,0-.94.67.67,0,0,1,.94.94A.66.66,0,0,1,78.13,34.56Z"/><path class="cls-1" d="M82.37,33.32a5.22,5.22,0,0,1-1.46-3.8,5.16,5.16,0,0,1,1.43-3.74,4.65,4.65,0,0,1,3.5-1.48,5,5,0,0,1,3.78,1.6s0,.1,0,.15l-.33.32s-.08,0-.13,0A4.2,4.2,0,0,0,85.88,25a4.06,4.06,0,0,0-3.06,1.28,4.55,4.55,0,0,0-1.23,3.29,4.56,4.56,0,0,0,1.26,3.32,4.13,4.13,0,0,0,3.09,1.3,4,4,0,0,0,1.74-.33,5.73,5.73,0,0,0,1.41-1,.07.07,0,0,1,.11,0l.37.32a.09.09,0,0,1,0,.14A5,5,0,0,1,86,34.82,4.83,4.83,0,0,1,82.37,33.32Z"/><path class="cls-1" d="M95.71,34.82a5,5,0,0,1-3.77-1.41,5.13,5.13,0,0,1-1.4-3.78A5.21,5.21,0,0,1,92,25.8a5.66,5.66,0,0,1,7.54,0,5.26,5.26,0,0,1,1.4,3.82,5.15,5.15,0,0,1-1.4,3.78A5.07,5.07,0,0,1,95.71,34.82ZM99,32.92a4.45,4.45,0,0,0,1.22-3.29A4.57,4.57,0,0,0,99,26.29a4.85,4.85,0,0,0-6.51,0,4.59,4.59,0,0,0-1.22,3.33,4.48,4.48,0,0,0,1.21,3.29,4.94,4.94,0,0,0,6.52,0Z"/><path class="cls-1" d="M111.74,24.47c.06,0,.1,0,.11.11v10c0,.06,0,.1-.11.1h-.49a.1.1,0,0,1-.11-.1V26l-3.65,6.21s0,.06-.09.06H107a.1.1,0,0,1-.11-.06l-3.73-6.25v8.61a.09.09,0,0,1-.1.1h-.48a.09.09,0,0,1-.1-.1v-10a.1.1,0,0,1,.1-.11H103a.11.11,0,0,1,.11.06l4.08,6.83,4-6.83a.12.12,0,0,1,.1-.06Z"/><polygon class="cls-2" points="104.95 21.05 105.44 21.05 105.44 19.3 104.95 19.3 104.95 21.05 104.95 21.05"/><path class="cls-2" d="M79.09,16.59,98.49,4l.81,1.25L99.72,5l-.81-1.25,3.34-2.17a.23.23,0,0,1,.32.07l2.33,3.58h0l0,0,0,0,0,0,0,0,0,0,0,0,0,0,0,0,0,0,0,0,0,0,0,0v0l0,.06v0l0,.07h0l0,.07v0l0,.05v0l0,0v.44s0,0,0,.06v0s0,0,0,.07h0s0,.06,0,.08V7.1l0,0v0l0,0v0l0,0v0l0,.05v0l0,.07,0,.07,0,0,0,0,0,0,0,0,0,0,0,0,0,0,0,0,0,0,0,0,0,0,0,0,0,0,0,0,0,0,0,0,0,0,.06,0h0l.07,0h0l.06,0h0l.05,0h0l0,0h1.13l0,0h0l0,0h0l2.33,3.58a.23.23,0,0,1-.07.32l-3.34,2.17L104.92,13l-.42.27.81,1.25-2,1.27h.91l5.07-3.3a.73.73,0,0,0,.21-1l-2.59-4-.21.13a1.28,1.28,0,0,1-1.4-2.15l.21-.13-2.59-4a.73.73,0,0,0-1-.21L78.82,16.17a.73.73,0,0,0-.21,1L80.5,20.1v-.91L79,16.91a.23.23,0,0,1,.07-.32Z"/><polygon class="cls-2" points="100.8 7.52 101.21 7.25 100.26 5.79 99.85 6.06 100.8 7.52 100.8 7.52"/><polygon class="cls-2" points="101.75 8.08 101.33 8.35 101.53 8.64 102.28 9.81 102.48 10.11 102.89 9.84 102.7 9.54 101.94 8.38 101.75 8.08 101.75 8.08"/><polygon class="cls-2" points="103.43 10.67 103.02 10.94 103.97 12.4 104.38 12.13 103.43 10.67 103.43 10.67"/><path class="cls-2" d="M109.43,16.32H81.8a.73.73,0,0,0-.73.73v4.74h.4l.1-.13V17.05a.23.23,0,0,1,.23-.23h23.14v1.49h.5V16.82h4a.23.23,0,0,1,.23.23v4.29h0l.48,0V17.05A.73.73,0,0,0,109.43,16.32Z"/><path class="cls-1" d="M7.92,6.36a5.7,5.7,0,0,1,3.92,1.32,4.42,4.42,0,0,1,1.5,3.47,4.38,4.38,0,0,1-1.49,3.46,5.73,5.73,0,0,1-3.93,1.31H5.73v4.62a.46.46,0,0,1-.52.52H2.12a.46.46,0,0,1-.52-.52V6.89a.47.47,0,0,1,.52-.53Zm0,6.2A1.36,1.36,0,0,0,9,12.09a1.55,1.55,0,0,0,.39-1,1.44,1.44,0,0,0-.4-1,1.42,1.42,0,0,0-1.12-.44H5.73v2.9Z"/><path class="cls-1" d="M27.15,20.46c.16.37,0,.6-.42.6h-3.4a.58.58,0,0,1-.6-.4l-.55-1.34H17.23l-.58,1.34a.63.63,0,0,1-.62.4H12.59c-.42,0-.54-.21-.39-.6l6.11-13.7a.63.63,0,0,1,.6-.4h1.85a.6.6,0,0,1,.62.4Zm-7.37-7.92-1.34,3.77H21Z"/><path class="cls-1" d="M40.92,20.44c.19.34,0,.63-.38.63h-3a.62.62,0,0,1-.6-.38l-2.37-4.77h-2v4.62a.46.46,0,0,1-.52.52H29a.46.46,0,0,1-.52-.52V6.89A.47.47,0,0,1,29,6.36h5.79A5.7,5.7,0,0,1,38.7,7.68a4.42,4.42,0,0,1,1.5,3.47A4.33,4.33,0,0,1,38,15.1ZM32.6,9.66v2.9h2.18a1.36,1.36,0,0,0,1.13-.47,1.55,1.55,0,0,0,.39-1,1.44,1.44,0,0,0-.4-1,1.42,1.42,0,0,0-1.12-.44Z"/><path class="cls-1" d="M53.72,6.36a.48.48,0,0,1,.53.53V9.68a.47.47,0,0,1-.53.52H49.85V20.54a.47.47,0,0,1-.53.52H46.21a.46.46,0,0,1-.52-.52V10.21H41.8a.46.46,0,0,1-.52-.52V6.89a.47.47,0,0,1,.52-.53Z"/><path class="cls-1" d="M56.27,21.06a.46.46,0,0,1-.52-.52V6.89a.47.47,0,0,1,.52-.53h3.11a.47.47,0,0,1,.52.53V20.54a.46.46,0,0,1-.52.52Z"/><path class="cls-1" d="M68.51,21.25a5.94,5.94,0,0,1-4.62-1.88,7.17,7.17,0,0,1-1.7-5V6.89a.47.47,0,0,1,.52-.53h3.09a.47.47,0,0,1,.52.53v7.45c0,1.93.68,2.77,2.19,2.77s2.15-.84,2.15-2.77V6.89a.47.47,0,0,1,.52-.53h3.09a.48.48,0,0,1,.53.53v7.45a7.21,7.21,0,0,1-1.69,5A5.89,5.89,0,0,1,68.51,21.25Z"/></svg>